<?xml version="1.0" standalone="no"?>
<!DOCTYPE svg PUBLIC "-//W3C//DTD SVG 1.1//EN" "http://www.w3.org/Graphics/SVG/1.1/DTD/svg11.dtd" >
<svg xmlns="http://www.w3.org/2000/svg" xmlns:xlink="http://www.w3.org/1999/xlink" version="1.1">
<metadata>
Created by FontForge 20200427 at Mon Mar 25 17:04:27 2013
 By www
Cactus Flower Open with Alternates, Small Caps, Old Style Figures, Petite Figures, and Initials. Copyright 2006 Spiece Graphics. All rights reserved.
</metadata>
<defs>
<font id="CactusFlowerOpenSGOT-Regular" horiz-adv-x="0" >
  <font-face 
    font-family="CactusFlowerOpenSGOT-Regular"
    font-weight="400"
    font-stretch="normal"
    units-per-em="1000"
    panose-1="2 0 5 4 2 0 0 2 0 4"
    ascent="778"
    descent="-222"
    x-height="557"
    cap-height="731"
    bbox="-96 -212 888 805"
    underline-thickness="20"
    underline-position="-133"
    unicode-range="U+0020-FB04"
  />
<missing-glyph horiz-adv-x="500" 
d="M500 170q0 -71 -49.5 -120.5t-119.5 -49.5h-161q-70 0 -120 50t-50 120v343q0 71 50 120.5t120 49.5h161q70 0 119.5 -49.5t49.5 -120.5v-343zM412 615q-36 28 -81 28h-161q-45 0 -81 -28l161 -242zM460 170v343q0 42 -20 72l-169 -254l165 -237q24 33 24 76zM229 331
l-168 254q-21 -31 -21 -72v-343q0 -42 25 -76zM409 66l-159 232l-158 -232q36 -26 78 -26h161q42 0 78 26z" />
    <glyph glyph-name="fi" unicode="fi" horiz-adv-x="635" 
d="M573 682q0 -3 -10.5 -12.5t-11.5 -12.5q-3 -9 -7 -18q-22 -40 -65 -40q-34 0 -56 35q-2 3 -5 9t-5 9q-2 2 -9.5 6t-8.5 8l5 7q6 7 7 9q5 28 24.5 45.5t47.5 17.5q45 0 64 -33q2 -2 4 -7t2 -6q1 -3 12.5 -8.5t11.5 -8.5zM611 46q0 -21 -15 -39t-36 -18q-5 0 -11 3t-13.5 8
l-10.5 7q-19 -17 -31 -17q-17 0 -29 12q-17 -12 -37 -12q-28 0 -46.5 14.5t-18.5 41.5q0 17 14 17q3 0 10 -2.5t11 -2.5q7 0 7 10v174q0 10 -21.5 18t-21.5 17q0 6 21.5 19t21.5 24v157q0 6 -7 11t-13 5l-172 -1v-167q0 -11 21 -23.5t21 -19.5q0 -9 -21 -16.5t-21 -16.5
v-175q0 -5 3 -8t8.5 -3.5t10.5 -0.5t11.5 0.5t8.5 0.5q7 0 12 -5t5 -12q0 -21 -14.5 -39t-35.5 -18q-5 0 -11 3t-13.5 8l-10.5 7q-19 -17 -32 -17q-16 0 -28 12q-17 -12 -37 -12q-27 0 -46 15t-19 41q0 17 13 17q4 0 11 -2.5t11 -2.5q6 0 6 10v174q0 11 -21 18t-21 17
q0 8 21 19.5t21 23.5v172h-46v50h46v45q0 20 -37 31q25 14 42 33t26 34.5t23.5 29.5t44.5 22t79 8q47 0 79.5 -27.5t32.5 -74.5q0 -13 9 -17.5t9 -9.5q0 -8 -9 -14.5t-18 -6.5q-7 0 -11 3q-15 -22 -33 -22q-21 0 -25 8q10 8 10 21q-30 0 -30 34q0 10 8 10q2 0 7 -2t7 -2
q15 0 15 17q0 18 -33 18q-20 0 -34.5 -16t-14.5 -36v-86h171q18 14 44 14q11 0 33 -10q1 1 3 3.5t2.5 3l2.5 2.5t3 2.5t2.5 1.5t3 1.5l3 1t4 0.5h4.5h31q31 0 31 -20v-217q0 -10 21.5 -23.5t21.5 -19.5q0 -8 -21.5 -16.5t-21.5 -16.5v-175q0 -12 22 -12q3 0 10 0.5t11 0.5
q7 0 12 -5t5 -12zM456 646q0 8 -2.5 24t-2.5 22q0 8 -3 8q-2 -1 -4 -5q-4 -13 -9 -19l-1 -1q-2 -1 -2 -2q1 -2 8.5 -12.5t9.5 -13.5l1 -2l3 -3q2 0 2 4zM462 136v275q0 36 -20 55q-4 -10 -4.5 -42t0.5 -78t1 -49q0 -4 -2 -7t-3.5 -4.5t-6 -3.5t-6.5 -3q2 -7 5.5 -9.5
t6.5 -3.5t5 -11t2 -31q0 -25 -0.5 -75.5t-0.5 -75.5q0 -1 3 -16q10 4 15 32t5 47zM145 657l-4 8q-44 -27 -44 -120q0 -46 2 -123t2 -123q0 -4 -2 -7.5t-3.5 -4.5t-7 -3.5t-6.5 -3.5q2 -7 9.5 -12t9.5 -12q3 -8 3 -45q0 -23 -1.5 -69t-1.5 -69q0 -6 2 -16q21 9 21 104
q0 60 -2 164.5t-2 164.5t1 90q1 15 12.5 45.5t11.5 31.5z" />
    <glyph glyph-name="fl" unicode="fl" horiz-adv-x="635" 
d="M610 46q0 -21 -14.5 -39t-35.5 -18q-5 0 -11 3t-13.5 8l-10.5 7q-19 -17 -32 -17q-16 0 -28 12q-17 -12 -37 -12q-28 0 -46.5 14.5t-18.5 41.5q0 17 13 17q4 0 11 -2.5t11 -2.5q6 0 6 10v174q0 11 -21 18.5t-21 16.5q0 7 21 19.5t21 23.5v172h-191v-167q0 -11 21 -23.5
t21 -19.5q0 -10 -21 -17t-21 -16v-175q0 -5 3 -8t8.5 -3.5t10.5 -0.5t11.5 0.5t8.5 0.5q7 0 12 -5t5 -12q0 -21 -14.5 -39t-35.5 -18q-6 0 -12 3t-13 8t-10 7q-19 -17 -32 -17q-16 0 -28 12q-17 -12 -37 -12q-27 0 -46 15t-19 41q0 17 13 17q4 0 11 -2.5t11 -2.5q6 0 6 10
v174q0 11 -21 18t-21 17q0 8 21 19.5t21 23.5v172h-46v50h46v45q0 20 -37 31q31 17 50.5 42t28.5 42t42 30t94 13q35 0 64 -16t41 -47q6 18 20.5 31t33.5 13q30 0 46 -7q5 6 11.5 9.5t15.5 5t13 2t16.5 0t14.5 -0.5q31 0 31 -20v-390q0 -10 21 -23.5t21 -19.5
q0 -8 -21 -16.5t-21 -16.5v-175q0 -5 3 -7.5t9 -3.5t11 -1t11 0.5t8 0.5q7 0 12 -5t5 -12zM404 542v98q0 13 -15 13q-5 0 -15.5 -5t-17.5 -3v-2q0 -13 9 -17.5t9 -9.5q0 -8 -9 -14.5t-18 -6.5q-7 0 -11 3q-16 -22 -33 -22q-21 0 -25 8q10 8 10 21q-30 0 -30 34q0 10 8 10
q2 0 7 -2t7 -2q15 0 15 17q0 18 -33 18q-20 0 -34.5 -16t-14.5 -36v-86h191zM455 144v444q0 36 -21 57q-5 -15 -5 -69q0 -45 1.5 -135.5t1.5 -135.5q0 -11 -19 -19q2 -7 9.5 -12t9.5 -12q3 -9 3 -45q0 -23 -1.5 -69t-1.5 -69q0 -6 2 -16q10 5 15.5 33t5.5 48zM145 657l-4 8
q-44 -27 -44 -120q0 -41 2 -123t2 -123q0 -11 -19 -19q2 -7 9 -12t10 -12q3 -8 3 -45q0 -23 -1.5 -69t-1.5 -69q0 -6 2 -16q21 9 21 104q0 60 -2 180.5t-2 180.5q0 39 1 58q1 15 12 40t12 37z" />
    <glyph glyph-name=".notdef" horiz-adv-x="500" 
d="M500 170q0 -71 -49.5 -120.5t-119.5 -49.5h-161q-70 0 -120 50t-50 120v343q0 71 50 120.5t120 49.5h161q70 0 119.5 -49.5t49.5 -120.5v-343zM412 615q-36 28 -81 28h-161q-45 0 -81 -28l161 -242zM460 170v343q0 42 -20 72l-169 -254l165 -237q24 33 24 76zM229 331
l-168 254q-21 -31 -21 -72v-343q0 -42 25 -76zM409 66l-159 232l-158 -232q36 -26 78 -26h161q42 0 78 26z" />
    <glyph glyph-name=".null" 
 />
    <glyph glyph-name="nonmarkingreturn" horiz-adv-x="333" 
 />
    <glyph glyph-name="space" unicode=" " horiz-adv-x="256" 
 />
    <glyph glyph-name="quotesingle" unicode="'" horiz-adv-x="302" 
d="M225 719q-19 -178 -35 -263q-6 -39 -25 -39q-22 0 -30 37q-10 40 -47 263q-3 21 19 29t49 8q15 0 23 -0.5t22 -3.5t19.5 -10.5t4.5 -20.5z" />
    <glyph glyph-name="parenleft" unicode="(" horiz-adv-x="400" 
d="M363 -63q0 -23 -24 -36q2 -8 2 -11q0 -13 -8 -21.5t-21 -8.5q-11 0 -26 8t-19 8q-3 0 -8.5 -1t-8.5 -1q-44 0 -44 26q0 17 19 44q-80 142 -108 259q-2 7 -4.5 30.5t-7.5 34.5q-2 5 -20 16t-18 26q0 9 18 28t19 21q4 15 11 46t11 47q29 105 99 233q-19 27 -19 44
q0 26 44 26q3 0 8.5 -1.5t8.5 -1.5q4 0 19 8.5t26 8.5q16 0 24 -13t3 -28q10 -4 17 -15t7 -22q0 -17 -26 -20t-27 -4q-25 -25 -54 -134t-35 -167q38 -35 38 -48q0 -11 -19 -28t-19 -27q0 -42 33.5 -160.5t55.5 -140.5q1 -1 27 -4.5t26 -20.5z" />
    <glyph glyph-name="parenright" unicode=")" horiz-adv-x="400" 
d="M329 310q0 -15 -18 -26t-20 -16q-5 -11 -7.5 -34.5t-4.5 -30.5q-28 -117 -108 -259q19 -27 19 -44q0 -26 -44 -26q-3 0 -8.5 1t-8.5 1q-4 0 -19 -8t-26 -8q-13 0 -21 8.5t-8 21.5q0 3 2 11q-24 13 -24 36q0 17 26 20.5t27 4.5q22 22 55.5 140.5t33.5 160.5q0 10 -19 27
t-19 28q0 13 38 48q-6 58 -35 167t-54 134q-1 1 -27 4t-26 20q0 11 7 22t17 15q-5 15 3 28t24 13q11 0 26 -8.5t19 -8.5q3 0 8.5 1.5t8.5 1.5q44 0 44 -26q0 -17 -19 -44q70 -128 99 -233q4 -16 11 -47t11 -46q1 -2 19 -21t18 -28z" />
    <glyph glyph-name="asterisk" unicode="*" horiz-adv-x="426" 
d="M395 562l-113 -37l71 -98l-66 -48l-73 100l-75 -103l-66 48l73 101l-115 38l25 78l118 -39v125h82v-124l114 37z" />
    <glyph glyph-name="plus" unicode="+" horiz-adv-x="455" 
d="M428 247h-141v-141h-118v141h-142v118h142v142h118v-142h141v-118z" />
    <glyph glyph-name="comma" unicode="," horiz-adv-x="302" 
d="M244 61q0 -3 -10.5 -12.5t-11.5 -12.5l-20 -51q-32 -71 -114 -130q-9 -7 -17 -7q-12 0 -12 10q0 4 4 8q5 5 19.5 20.5t19.5 21.5t14.5 19t14.5 25t9 27q-27 4 -46 34q-2 3 -5 9t-5 9q-2 2 -9.5 5.5t-8.5 8.5q9 9 12 16q19 63 72 63q44 0 64 -33q1 -2 3 -6.5t3 -6.5
q2 -3 13 -8.5t11 -8.5zM127 25q0 8 -2.5 24t-2.5 22q0 8 -3 8q-2 -1 -4 -5q-4 -13 -9 -19l-1 -1q-2 -1 -2 -2q1 -2 8.5 -12.5t9.5 -13.5l1 -2q2 -3 3 -3q2 0 2 4z" />
    <glyph glyph-name="hyphen" unicode="-" horiz-adv-x="394" 
d="M349 383q0 -28 -20 -64q-4 -7 -12 -22.5t-10.5 -19.5t-10 -12.5t-14.5 -10.5t-19 -4.5t-28 -2.5h-90q-24 0 -48.5 -13.5t-35.5 -13.5q-16 0 -16 14q0 12 9 34t9 34q0 9 -8.5 20.5t-8.5 18.5q0 13 12.5 24t25.5 11q6 0 20.5 -5.5t22.5 -5.5q98 0 147 -1q11 12 30.5 26
t30.5 14q14 0 14 -21z" />
    <glyph glyph-name="period" unicode="." horiz-adv-x="302" 
d="M248 61q0 -3 -10.5 -12.5t-11.5 -12.5q-3 -9 -7 -18q-22 -40 -65 -40q-34 0 -56 35q-2 3 -5 9t-5 9q-2 2 -9.5 6t-8.5 8l6 7q5 7 6 9q5 28 24.5 45.5t47.5 17.5q44 0 64 -33q2 -2 4 -7t2 -6q1 -3 12.5 -8.5t11.5 -8.5zM131 25q0 8 -2.5 24t-2.5 22q0 8 -3 8q-2 -1 -4 -5
q-4 -13 -9 -19l-1 -1q-2 -1 -2 -2q1 -2 8.5 -12.5t9.5 -13.5l1 -2q2 -3 3 -3q2 0 2 4z" />
    <glyph glyph-name="zero" unicode="0" horiz-adv-x="615" 
d="M579 352l-3 -4q-16 -9 -22 -18t-6 -26q0 -32 -16 -90q-14 -51 -30 -88t-42 -72t-65.5 -53.5t-90.5 -18.5q-52 0 -89.5 18t-63 55.5t-39 70.5t-30.5 88q-16 55 -16 97q0 12 -8 21t-15.5 14t-7.5 6q0 4 12.5 12t17.5 22q3 9 9 48t9 52q14 53 28.5 88.5t39 72t63 54.5
t90.5 18q42 0 76 -13t57 -33.5t41.5 -52.5t30 -62.5t22.5 -71.5q3 -13 9 -52t9 -48q5 -14 17.5 -22t12.5 -12zM427 169v274q0 11 -1 32t-4 49t-9 48t-14 20q-7 0 -7 -17q0 -9 2 -26.5t2 -26.5v-149q0 -5 -6 -15t-6 -13q0 -5 8 -12t8 -14v-203q0 -3 3 -12t5 -9q6 0 12.5 31
t6.5 43zM357 193q0 103 -4 120q-5 18 -19 24.5t-14 10.5q0 6 16.5 12.5t17.5 16.5q1 22 1 65q0 218 -51 218q-45 0 -45 -218v-65q0 -10 17.5 -16.5t17.5 -12.5q0 -3 -16.5 -11t-16.5 -24v-56q0 -214 50 -214q46 0 46 150zM194 92q0 19 -6 37q-43 137 -43 217q0 119 38 232
l-5 9q-20 -10 -32.5 -52t-20 -92.5t-11.5 -61.5q-6 -16 -17 -25l2 -6q21 -23 29.5 -76.5t21 -105.5t44.5 -76z" />
    <glyph glyph-name="one" unicode="1" horiz-adv-x="615" 
d="M501 64q0 -33 -24.5 -59t-56.5 -26q-19 0 -43.5 9t-37.5 21q-3 -3 -15 -12.5t-14 -9.5q-9 0 -34 20q-34 -28 -72 -28q-32 0 -56.5 26t-24.5 59q0 11 9 11q7 0 21 -3.5t22 -3.5q27 0 52 11v210q0 15 -11.5 28.5t-23 21.5t-11.5 10q0 5 23 19t23 24v187q0 17 -16 17
q-49 0 -66 -14t-24 -14q-8 0 -8 13q0 41 30 76t71 35q2 0 15.5 -1t22 -0.5t12.5 4.5q18 20 49 20q10 0 18 -5.5t13 -5.5q6 0 18.5 4.5t19.5 4.5q24 0 24 -22q0 -5 -2 -13q-11 -11 -11 -60v-191q0 -15 14.5 -31.5t28.5 -27.5t14 -12q0 -3 -14 -12.5t-28.5 -25t-14.5 -31.5
v-208q27 -11 55 -11q8 0 22.5 3.5t21.5 3.5q9 0 9 -11zM329 347q0 2 -16 10.5t-16 20.5q0 132 -8 192q-7 41 -16 41q-6 0 -6 -17q0 -70 6 -460q0 -29 4 -29q8 4 12.5 18.5t6 36.5t1.5 40.5t-1 40t-1 25.5q0 21 1 31q2 15 7.5 23.5t11 11t10 6t4.5 9.5z" />
    <glyph glyph-name="three" unicode="3" horiz-adv-x="615" 
d="M553 230l-3 -4q-17 -8 -27 -30.5t-14.5 -49.5t-17.5 -56.5t-33.5 -53.5t-66.5 -40t-113 -16q-82 0 -147 33q-2 -2 -11 -14t-19 -12q-13 0 -24 21t-11 35q0 9 7 21.5t7 17.5q0 7 -9.5 16.5t-9.5 15.5q0 5 3 14t3 14q0 6 -2.5 17t-2.5 17q0 34 15 65t45 31q17 0 17 -13
q0 -11 -6 -31t-6 -30q0 -58 38.5 -101t95.5 -43q62 0 62 113q0 90 -5 123q-3 19 -7.5 27t-8 10t-17 2.5t-23.5 2.5q-25 5 -45 21.5t-20 40.5q0 10 10.5 32.5t18.5 22.5q4 0 16 -15t28 -15q13 0 31.5 15.5t18.5 28.5v109q0 41 -11 66t-44 25q-42 0 -80 -36t-38 -78
q0 -5 1.5 -14t1.5 -14q0 -21 -25 -21q-34 0 -34 40q0 6 1.5 18t1.5 18t-5.5 15.5t-5.5 15.5q0 7 6 20t6 20q0 3 -6 14t-6 18q0 19 16 36.5t35 17.5q10 0 24 -16t24 -17q58 23 116 23q74 0 104 -18t81 -83q3 -3 10 -9t11.5 -11.5t4.5 -12.5q0 -2 -6 -8q-7 -8 -16 -32
q-3 -8 -9 -31.5t-10.5 -36.5t-15 -29t-24.5 -25q-28 -17 -43 -18v-6q126 -15 126 -109q0 -22 21 -41.5t21 -22.5zM404 570q0 7 -7 12q-9 7 -19 28.5t-13 23.5q-7 0 -7 -13q0 -123 18 -123q8 0 11 18q0 3 1 11.5t2 13.5t3.5 11.5t6.5 9.5t4 8zM418 223q0 3 -7.5 16t-8.5 18
q-13 64 -23 69q-6 0 -6 -13q0 -19 2.5 -57t2.5 -57v-37q0 -8 -1 -24t-1 -24q0 -11 4 -11q11 0 17.5 23t9.5 51.5t6 34.5q5 7 5 11z" />
    <glyph glyph-name="four" unicode="4" horiz-adv-x="615" 
d="M589 217q0 -7 -7 -17.5t-7 -15.5q0 -6 3 -8.5t3 -8.5q0 -25 -6.5 -35t-30.5 -10q-25 0 -25 17q0 3 1.5 11t1.5 11q0 20 -9.5 28t-30.5 8q-34 0 -42 -7t-8 -41q0 -18 1 -29t5.5 -24t15.5 -19.5t28 -6.5q9 0 22.5 8.5t21.5 8.5q12 0 12 -20q0 -23 -24 -47.5t-46 -24.5
q-28 0 -56 11q-40 -21 -68 -21q-9 0 -17 3t-18 9t-15 8q-26 -13 -51 -13q-32 0 -58.5 12.5t-26.5 41.5q0 36 15 36q7 0 26 -9t31 -9q38 0 38 38v69q0 12 -4.5 17t-16.5 5l-173 1q-48 0 -48 38q0 19 32 81t32 65q0 6 -7.5 15t-7.5 15t22.5 16.5t25.5 15.5q25 40 63 128.5
t64 130.5q17 26 35 26q8 0 22 -6.5t20 -6.5t19.5 7.5t21.5 7.5q9 0 25 -8.5t25 -8.5q8 0 22 5t21 5q18 0 35.5 -10.5t17.5 -27.5q0 -40 -20 -40q-4 0 -12 2.5t-13 2.5q-28 0 -32 -15q-4 -13 -4 -93v-102l38 -29l-39 -43l1 -62q0 -20 7 -25t28 -5q17 0 27.5 1.5t21 10
t12.5 23.5q0 1 0.5 10t2 16t4.5 7q52 0 52 -47q0 -8 -5.5 -21t-5.5 -17q0 -7 6 -19.5t6 -19.5zM368 331l-16 17q-17 17 -17 32q0 166 -10 263q0 15 -6 15t-9 -21t-3 -34q0 -77 3 -231.5t3 -231.5q0 -18 7 -18q4 0 7 10q13 48 13 159q0 14 4.5 20.5t9.5 7.5t9.5 3.5t4.5 8.5z
M270 435v70q0 97 -8 101q-8 -9 -44.5 -89t-36.5 -90q0 -6 7 -15.5t7 -14.5q0 -6 -19.5 -14t-22.5 -12q-6 -8 -23 -44.5t-17 -44.5q0 -6 12 -6l125 -1q18 0 18 14v64q0 22 -37 48q1 8 20 17.5t19 16.5z" />
    <glyph glyph-name="five" unicode="5" horiz-adv-x="615" 
d="M552 222q-43 -19 -46 -36q-19 -103 -75.5 -155t-160.5 -52q-56 0 -108 23q-10 5 -15 5q-7 0 -12 -10t-13 -20t-23 -10q-11 0 -17 11.5t-6 24.5q0 6 4 16.5t4 16.5q0 5 -10.5 16.5t-10.5 24.5q0 12 8 28.5t8 23.5q0 8 -1 24.5t-1 24.5q0 85 38 85q8 0 17 -8t9 -16
t-3.5 -24t-3.5 -24q0 -46 35 -80.5t81 -34.5q40 0 59 29t19 72q0 6 -18.5 19.5t-18.5 18.5q0 8 19 17t19 16q0 62 -23.5 92t-83.5 30q-63 0 -99 -18q-8 -4 -13 -4q-12 0 -12 35q0 47 -0.5 140.5t-0.5 140.5q0 52 39 52q16 0 25.5 -11.5t12.5 -11.5q18 0 60 12.5t65 12.5
q35 0 127 -22h2q2 -1 3 -1l10 7q10 6 24 6t22 -15t8 -31q0 -10 -5 -19t-5 -12q0 -2 3.5 -8.5t3.5 -13.5q0 -5 -4 -5q-6 0 -9 -3q16 -16 16 -40q0 -10 -6 -19.5t-15 -9.5q-7 0 -21 14q-38 41 -138 41q-113 0 -138 -37v-47q0 -59 10 -59q1 0 46 6q25 3 76 3q89 0 132.5 -37
t56.5 -124q4 -26 17 -39.5t24.5 -19t12.5 -11.5zM434 640q0 8 -20.5 13.5t-49.5 8t-31 2.5q-3 1 -9 2.5t-10.5 2.5t-9.5 1t-14 -3t-11 -3q-3 -1 -17.5 -2.5t-29 -3.5t-30 -5t-25 -8t-9.5 -11q0 -11 14 -11q17 0 49.5 8.5t49.5 8.5h47q15 0 43.5 -5.5t42.5 -5.5q20 0 20 11z
M406 235q0 4 -7 9q-1 1 -12 45.5t-29 45.5l-2 -3l3 -12q10 -31 10 -89q0 -19 -1.5 -57.5t-1.5 -57.5q0 -9 4 -9q10 0 14 22.5t4 39.5q0 10 3.5 32.5t7.5 26.5q1 1 3 2t3 2t1 3z" />
    <glyph glyph-name="six" unicode="6" horiz-adv-x="615" 
d="M589 243q-3 -3 -17 -12.5t-19.5 -17.5t-5.5 -20q0 -97 -67 -154.5t-166 -57.5q-144 0 -196 130q-22 54 -42 193q0 5 -1 9q-4 25 -15 35.5t-22 12.5t-12 7q3 7 14 8t20.5 10.5t13.5 39.5q6 44 10.5 68.5t14.5 57.5t23.5 54.5t37.5 44.5t57 42q48 28 115 28q26 0 71 -15
t61 -15q4 0 7 2t3.5 6.5t1 7.5t0 9t-0.5 7q0 6 8 6q18 0 27 -13.5t9 -31.5q0 -6 -2.5 -18.5t-2.5 -18.5q0 -7 3.5 -20t3.5 -20q0 -6 -4 -14.5t-4 -13.5q0 -7 3.5 -19t3.5 -18q0 -19 -12.5 -36.5t-30.5 -17.5q-25 0 -25 29q0 5 1 16t1 16q0 42 -31 67.5t-74 25.5
q-84 0 -84 -71l1 -134q0 -11 5 -11q58 24 87 24q146 0 177 -107q3 -8 5 -24.5t4 -24.5q6 -19 15 -28t18 -13t12 -10zM460 239q-3 4 -6.5 8t-7.5 8l-7 7q-4 4 -6.5 21.5t-7.5 31.5t-15 14q-7 0 -7 -13q0 -20 4.5 -60t4.5 -60q0 -14 -4.5 -39.5t-4.5 -36.5q0 -1 1.5 -5t1.5 -5
q25 17 28 59t8 48q1 1 6 5.5t8.5 9t3.5 7.5zM197 602q0 6 -6 6q-9 0 -21 -48t-13 -66q0 -7 -1 -36.5t-3 -53t-6 -32.5q-15 -7 -16 -17l1 -4q16 -14 24.5 -68t14 -101.5t15.5 -49.5l1 3q1 3 1 4q0 12 -0.5 25.5t-1.5 29.5t-1 25q-4 109 -4 248q0 62 6 92q0 2 5 18t5 25z
M359 151v153q0 69 -53 69q-41 0 -41 -75v-3.5v-3t0.5 -9.5t0.5 -21.5v-40.5v-65q0 -33 10.5 -72.5t33.5 -39.5q49 0 49 108z" />
    <glyph glyph-name="eight" unicode="8" horiz-adv-x="615" 
d="M574 225q0 -2 -3.5 -7t-9 -10.5l-6.5 -6.5q0 -1 -4.5 -17.5t-9 -34.5t-5.5 -21q-23 -67 -85 -107.5t-134 -40.5q-83 0 -137 22q-32 13 -65.5 65t-33.5 88q0 32 -29 41q-11 6 -11 7q0 5 11 12q6 5 12 12t9.5 13t7.5 17t5.5 15.5t5 17.5t4.5 16q11 38 39.5 57t71.5 30
q8 3 9 6q-3 4 -9 6q-58 24 -89 118q-4 12 -11 18.5t-13 7t-10.5 2.5t-4.5 8q0 4 6 7.5t15 7t11 4.5q1 1 2 5t2 8.5t1 5.5q7 29 36 72q19 27 52.5 41.5t58.5 16.5t67 2q109 0 152 -66q5 -8 11.5 -24t10.5 -23q2 -3 8.5 -11t11.5 -15t5 -11q0 -7 -12.5 -21t-12.5 -16
q0 -41 -23 -81t-58 -54q-10 -3 -10 -8q0 -9 25 -9q37 -4 69 -42.5t38 -78.5q2 -13 15.5 -26.5t13.5 -17.5zM425 568q0 2 -5.5 10t-6.5 14q-9 46 -22 62q-3 5 -6 5t-3 -9q0 -14 5 -40t6 -37q1 -16 -0.5 -45.5t-1.5 -38.5q0 -13 4 -13q10 6 16.5 40.5t9.5 39.5q4 6 4 12z
M349 463v163q0 17 -12 28t-30 11t-29.5 -11t-11.5 -28v-163q0 -16 12 -26t30 -10t29.5 10t11.5 26zM198 487q0 10 -5 33.5t-5 35.5q0 64 9 85q1 2 1 7q0 8 -4 8q-6 -3 -17.5 -31.5t-12.5 -38.5q-1 -12 -7.5 -19t-6.5 -8t4 -6l3 -5q2 -4 8.5 -21.5t14 -30.5t15.5 -13q3 0 3 4
zM439 218q0 2 -7 12.5t-8 15.5q-1 2 -2 10.5t-3 16.5t-4 16.5t-6 13.5t-9 5q-7 0 -7 -12t5 -70q2 -6 0.5 -39.5t-1.5 -39.5q0 -16 8 -16q10 6 15 34.5t9 34.5q10 15 10 18zM349 84v236q0 17 -12 28.5t-30 11.5t-29.5 -11.5t-11.5 -28.5v-236q0 -16 12 -26t30 -10t29.5 10
t11.5 26zM162 74q0 19 -7 57.5t-7 58.5q0 73 7 107q1 3 1 9q0 5 -2 5q-9 -5 -19 -31.5t-11 -39.5q-1 -9 -6 -19.5t-5 -11.5q0 -6 6 -10q2 -1 5 -23.5t11 -51.5t20 -43q3 -7 7 -7z" />
    <glyph glyph-name="A" unicode="A" horiz-adv-x="629" 
d="M658 48q0 -24 -23.5 -40.5t-48.5 -16.5q-7 0 -20.5 3.5t-20.5 3.5q-5 0 -28 -8t-35 -8q-10 0 -25.5 8.5t-17.5 8.5q-7 0 -20.5 -5.5t-21.5 -5.5q-25 0 -44 15t-19 40q0 6 6 6q3 0 9 -1.5t9 -1.5q11 0 23.5 5.5t12.5 14.5q0 4 -11 45t-24 88t-15 55h-164
q-10 -29 -27.5 -94t-17.5 -81q0 -7 2 -13t4 -10t7.5 -7t8.5 -5t11 -3t10.5 -1.5t12 -1.5t11.5 -1q-7 -45 -46 -45q-26 0 -31 9q-19 -17 -32 -17q-8 0 -16 3.5t-13 7.5l-6 4q-3 0 -12 -4t-14 -4q-18 0 -32 13t-14 31q0 17 6 17q3 0 11.5 -4t13.5 -4q38 0 51 28q8 16 36.5 119
t28.5 116q0 15 -15 29l-16 14q0 5 15 9q26 8 39 42q10 26 32.5 116t22.5 110q0 7 -5 11.5t-14.5 6t-17 1.5t-18 -0.5t-12.5 -0.5q-19 0 -19 10q0 22 26 39t49 17q7 0 20.5 -2.5t19.5 -2.5q1 0 20 11t34 11q12 0 26 -6t23 -12t10 -6q8 0 28.5 6t31.5 6q24 0 43 -14t19 -37
q0 -5 -5 -6.5t-14 -0.5l-8 2q-12 0 -22.5 -6t-10.5 -18q0 -7 32 -119.5t37 -121.5q6 -11 24 -21.5t18 -17.5q0 -9 -11.5 -15t-11.5 -13q0 -10 33.5 -129.5t38.5 -128.5q6 -9 20 -16t26 -7q5 0 15 3.5t16 3.5t6 -6zM455 94q0 22 -7 53t-22 79.5t-17 54.5q-10 32 -10 40
q0 6 6.5 13t6.5 9t-5.5 6t-13 11t-10.5 14q-6 14 -17.5 61t-23.5 87.5t-20 48.5q-12 10 -23 14l-6 -2q0 -4 18 -64.5t38.5 -127.5t23.5 -78l39 -144q20 -73 22 -84q4 -15 9 -15q12 0 12 24zM330 305q-63 221 -73 263q-10 -44 -36 -139.5t-33 -123.5h142z" />
    <glyph glyph-name="C" unicode="C" horiz-adv-x="582" 
d="M567 160q0 -90 -69 -137t-163 -47q-104 0 -170.5 59t-79.5 163q-2 14 -2 63q0 18 -1 28.5t-4.5 26t-13 24t-25.5 11.5q-9 0 -9 4q0 2 6.5 5.5t14 7.5t9.5 5q15 12 15 76q0 130 72.5 207.5t201.5 77.5q86 0 137 -42t51 -126q0 -3 -0.5 -8.5t-0.5 -8.5q0 -10 10.5 -18
t10.5 -15q0 -17 -32 -17q-5 0 -13.5 3.5t-12.5 3.5q-1 0 -11.5 -11.5t-25.5 -23t-27 -11.5q-11 0 -11 10q0 7 2.5 22.5t2.5 23.5q-46 0 -46 37q0 10 7 10q2 0 6 -1.5t7 -1.5q22 0 34.5 20t12.5 43q0 31 -28.5 43.5t-63.5 12.5q-27 0 -57 -20t-30 -46v-200q0 -16 15 -28.5
t32 -15.5q6 0 6 -4q0 -2 -4.5 -5.5t-11 -8t-13 -8.5t-13 -7.5t-8.5 -4.5q0 -28 0.5 -84.5t0.5 -84.5q0 -116 130 -116q44 0 80 31.5t42 74.5q6 60 17 60q12 0 17.5 -18.5t5.5 -33.5zM166 101q0 12 -5.5 33.5t-5.5 31.5v43q0 54 -0.5 162.5t-0.5 162.5q0 56 8 74l-1 3
q-2 2 -4 2q-13 0 -22 -33.5t-9 -52.5v-140q0 -16 -10 -21t-12 -10q0 -5 12 -12t12 -15v-162q0 -11 12.5 -43.5t19.5 -32.5q6 0 6 10z" />
    <glyph glyph-name="I" unicode="I" horiz-adv-x="400" 
d="M360 46q0 -22 -15 -41.5t-37 -19.5q-9 0 -25.5 9t-23.5 9q-3 0 -15.5 -12t-23.5 -12t-19 5t-12 10t-5 5t-7.5 -5t-18 -10t-24.5 -5q-32 0 -52 16.5t-20 47.5q0 9 5 9t14 -3.5t14 -3.5q21 0 21 34v228q0 17 -28 32l-27 15q0 2 6 5q15 6 32 23t17 31v202q0 13 -9.5 22
t-23.5 9q-9 0 -23 -6.5t-15 -6.5q-6 0 -6 13q0 26 19 49t44 23q34 0 53 -10q1 0 15 11.5t35 11.5q13 0 27.5 -9t17.5 -9q8 0 23.5 6t24.5 6q26 0 43.5 -22t17.5 -49q0 -6 -3 -6q-4 0 -13 3t-14 3q-28 0 -37.5 -14.5t-9.5 -43.5v-176q0 -14 17 -31t32 -23q6 -3 6 -5l-27 -14
q-28 -14 -28 -31v-232q0 -7 2.5 -12.5t7.5 -8.5t9.5 -5t12.5 -2.5t12.5 -0.5h13h10.5q10 0 10 -9zM177 174v132q0 39 -0.5 116.5t-0.5 116.5q0 50 -23 72q-3 -5 -4.5 -26t-1.5 -51v-57t0.5 -55t0.5 -34q0 -15 -11 -18.5t-11 -7.5q0 -5 11 -11.5t13 -15.5q1 -5 1 -35
q0 -34 -1 -102.5t-1 -102.5q0 -4 6 -19q10 1 16 39t6 59z" />
    <glyph glyph-name="P" unicode="P" horiz-adv-x="591" 
d="M601 516l-3 -5q-2 -1 -4.5 -1t-3.5 -1q-11 -3 -13 -24q-13 -95 -71.5 -155.5t-151.5 -60.5q-49 0 -80 6v-180q0 -14 27 -30t42 -16q2 0 6.5 0.5t6.5 0.5q17 0 17 -9q0 -15 -18.5 -33.5t-34.5 -18.5q-39 0 -49 17q-13 -20 -46 -20t-53 17q-33 -21 -64 -21q-25 0 -48 14.5
t-23 38.5q0 26 5 27q18 -9 35 -9q33 0 33 29v208q0 36 -54 50q-12 4 -12 7t9 6q57 18 57 57v154q0 27 -13 45t-39 18q-4 0 -12 -2.5t-12 -2.5q-9 0 -9 15q0 29 36 52t67 23q24 0 39 -14q21 19 47 19q29 0 60 -23q41 25 97 25q72 0 126 -44.5t71 -115.5q7 -29 26 -37
q7 -2 7 -6zM482 501q0 4 -5.5 9t-5.5 10q0 13 -11 47.5t-19 39.5q-7 0 -7 -15q0 -31 3 -92.5t3 -92.5q0 -4 2.5 -11.5t5.5 -7.5q5 0 8 9q6 17 9.5 49.5t5.5 41.5q1 4 5.5 6.5t5.5 6.5zM386 383v200q0 22 -17.5 42t-38.5 20q-30 0 -43 -13.5t-13 -43.5v-184q0 -69 56 -69
q21 0 38.5 14t17.5 34zM179 147q0 54 -1.5 162.5t-1.5 162.5q0 122 -31 141q-6 -5 -6 -14q0 -16 3.5 -47.5t3.5 -47.5v-74q0 -58 -6 -63q-9 -7 -9 -12q0 -1 9 -13.5t9 -30.5q0 -31 2.5 -92t2.5 -92q0 -7 -2.5 -23t-2.5 -23q0 -9 9 -9q21 0 21 75z" />
    <glyph glyph-name="T" unicode="T" horiz-adv-x="647" 
d="M634 660q0 -35 -25 -53q1 -4 7.5 -13.5t6.5 -19.5q0 -15 -17 -30q16 -28 16 -53q0 -29 -19.5 -58t-47.5 -29q-12 0 -12 11q0 12 9 36t9 38q0 100 -85 135q-40 15 -56 15q-13 0 -13 -15v-209q0 -15 13.5 -31t27.5 -20q12 -4 12 -6q0 -4 -13 -7.5t-26.5 -13.5t-13.5 -30
v-216q0 -30 24 -30q36 0 53 12q4 -3 4 -17q0 -65 -84 -65q-14 0 -20 3.5t-8 9.5t-4 8q-21 -15 -40 -15q-23 0 -31 15q-43 -25 -66 -25t-48.5 23t-25.5 46q0 4 4.5 7.5t8.5 3.5q6 0 17 -6t17 -6q35 0 35 34v188q0 23 -12.5 43t-33.5 29q-9 3 -9 7t15 8q17 4 27.5 18.5
t10.5 32.5v212q0 12 -13 12q-16 0 -56 -15q-85 -35 -85 -135q0 -14 9 -38t9 -36q0 -11 -12 -11q-28 0 -47.5 29t-19.5 58q0 25 16 53q-17 15 -17 30q0 9 6.5 19t7.5 14q-25 17 -25 56q0 47 32 75q7 7 11 7q2 0 21.5 -21t37.5 -21q20 0 61 6.5t61 6.5q44 0 54 -8q14 9 58 9
q7 0 25 -9q9 8 35 8q21 0 61.5 -6.5t60.5 -6.5q18 0 37.5 21t21.5 21q4 0 11 -7q32 -28 32 -78zM313 163q0 58 -5 348q0 22 -6.5 66.5t-15.5 44.5t-9 -14q0 -36 2 -109t2 -109q0 -18 -10.5 -26t-10.5 -12q0 -2 11 -13t11 -22v-173q0 -12 -4 -33t-4 -25q0 -8 7 -8q3 0 11 8
q21 24 21 77z" />
    <glyph glyph-name="U" unicode="U" horiz-adv-x="683" 
d="M657 669q0 -19 -10 -19q-6 0 -18 3t-18 3q-26 0 -26 -31v-220q0 -20 17.5 -28.5t17.5 -11.5t-8 -6q-13 -5 -20 -20.5t-7 -31.5v-123q0 -44 10 -55q1 -1 12 -9t11 -13q0 -4 -13 -17q-65 -60 -119.5 -84.5t-136.5 -24.5q-46 0 -85.5 8.5t-74 27t-54.5 53.5t-20 84v146
q0 18 -13.5 33.5t-31.5 20.5q-8 0 -8 4q0 2 8 5t26.5 18.5t18.5 22.5v202q0 40 -32 40q-9 0 -24 -5.5t-24 -5.5q-10 0 -10 10q0 28 27.5 50t56.5 22q8 0 22.5 -5t22.5 -5q5 0 19 10t26 10q8 0 18 -5t17.5 -10t8.5 -5q2 0 21.5 8t31.5 8q24 0 46.5 -19t22.5 -42
q0 -24 -12 -24q-9 9 -21 9q-29 0 -40 -13.5t-11 -43.5v-176q0 -19 27 -34.5t27 -16.5q0 -2 -27 -12t-27 -28v-143q0 -131 109 -131q55 0 91 38.5t36 94.5v145q0 12 -20 24t-21 14q5 4 17 8t18 10t6 18v233q0 21 -32 21q-5 0 -14 -3t-13 -3q-6 0 -10.5 7.5t-4.5 14.5
q0 17 20.5 29.5t38.5 12.5q12 0 24 -7q11 11 27 11q8 0 20 -5.5t17 -5.5t13.5 3.5t13.5 3.5q14 0 27 -15t13 -29zM183 152v338q0 31 -6.5 77t-20.5 46q-2 0 -4.5 -10t-2.5 -13q0 -32 4 -97t4 -98q0 -24 -11 -31q-10 -5 -10 -10q0 -4 7.5 -14t8.5 -15q8 -31 8.5 -93.5
t1.5 -77.5q7 -33 12 -33q9 0 9 31z" />
    <glyph glyph-name="W" unicode="W" horiz-adv-x="890" 
d="M888 665q0 -14 -6 -14q-3 0 -9.5 4t-10.5 4q-29 0 -42 -28q-6 -13 -29 -117t-23 -118q0 -11 6 -21t12.5 -15.5t6.5 -6.5q0 -3 -12 -9q-22 -9 -32 -42q-11 -34 -27.5 -116t-16.5 -110q0 -7 4 -11.5t11 -6t13 -1.5t15 0.5t11 0.5q15 0 15 -10q0 -20 -20.5 -38t-40.5 -18
q-7 0 -20 4l-13 4q-1 0 -16 -12.5t-26 -12.5q-9 0 -20.5 6t-19.5 12l-8 6q-8 0 -25 -6t-26 -6q-21 0 -36 15t-15 36q0 5 4 6t11 0l7 -1q20 0 20 24q0 16 -3.5 34.5t-10.5 43.5t-9 34q-10 46 -32 131t-31 121q-16 -73 -50 -244q-2 -10 -6.5 -28t-7 -29.5t-4.5 -27t-2 -29.5
q0 -9 5 -13t10.5 -4t15.5 1t13 1q15 0 15 -10q0 -20 -20 -38t-40 -18q-7 0 -19 4l-13 4q-1 0 -17 -12.5t-27 -12.5q-9 0 -20.5 6t-19.5 12l-8 6q-8 0 -25 -6t-26 -6q-21 0 -35.5 15t-14.5 36q0 5 4 6t11 0l7 -1q11 0 19 6.5t8 17.5q0 8 -26.5 122.5t-29.5 118.5
q-2 4 -18 19.5t-16 19.5q0 8 9.5 14.5t9.5 13.5q0 12 -26 129t-30 124q-13 23 -38 23q-4 0 -12 -3.5t-13 -3.5t-5 6q0 22 18.5 39.5t40.5 17.5q5 0 16 -3.5t17 -3.5q5 0 22.5 10.5t27.5 10.5q8 0 25.5 -9t19.5 -9q9 0 24 6t24 6q23 0 37 -16t14 -39q0 -6 -5 -6q-3 0 -7 1.5
t-7 1.5q-16 0 -16 -17q0 -15 10 -60q70 -326 83 -396q22 117 35 173q11 47 21.5 116t11.5 90q0 17 0.5 37t-10 35.5t-31.5 15.5q-5 0 -13 -3.5t-12 -3.5q-6 0 -6 6q0 18 16.5 39.5t34.5 21.5q5 0 19.5 -6t19.5 -6q29 20 44 20q21 0 41 -14q27 9 48 9q22 0 36 -16t14 -39
q0 -7 -7 -7q-2 0 -6 2t-6 2q-8 0 -10 -2.5t-2 -12.5q0 -13 9 -51q15 -66 27 -129t26.5 -138.5t24.5 -126.5q7 37 31.5 159.5t37 192t12.5 86.5q0 30 -25 30q-4 0 -12 -1t-12 -1q-9 0 -13 5q2 18 14 31.5t29 13.5q15 0 20 -9q16 16 39 16q21 0 36 -15q4 0 11 4t11 4
q17 0 27.5 -15t10.5 -32zM605 121q-5 21 -17.5 61t-16.5 57l-75 294q-15 63 -19 85q-4 15 -9 15q-11 0 -11 -24q0 -27 6 -56.5t19 -75t16 -55.5q9 -39 9 -40q0 -6 -5.5 -13t-5.5 -9t5.5 -6.5t12 -11.5t8.5 -13q7 -17 27.5 -101t27.5 -96q6 -10 21 -14zM261 121
q-5 21 -17 61.5t-16 56.5l-75 294q-15 63 -19 85q-4 15 -9 15q-11 0 -11 -24q0 -27 6 -56.5t19 -75t16 -55.5q9 -39 9 -40q0 -6 -6 -13t-6 -9q0 -1 5.5 -6t12 -12.5t8.5 -12.5q7 -19 28 -102.5t27 -94.5q5 -10 21 -14z" />
    <glyph glyph-name="bracketleft" unicode="[" horiz-adv-x="400" 
d="M384 -62q0 -19 -9.5 -42t-25.5 -23q-20 0 -60 6t-60 6q-2 0 -10 -12t-15 -12q-17 0 -23 20q-1 0 -5 -5.5t-11 -10t-16 -4.5q-24 0 -35 19t-11 45q0 9 3 9q4 0 9.5 -3.5t8.5 -3.5q14 0 14 34v302q0 11 -9 22t-17.5 17t-8.5 8l3 4q4 4 9 10t10.5 13t9 15.5t3.5 16.5v282
q0 11 -5.5 21t-15.5 10q-12 0 -25 -13q-3 1 -3 13q0 22 11 47t29 25q25 0 39 -12l10 12q10 13 23 13q8 0 14.5 -9t8.5 -9q4 0 14.5 4t15.5 4q60 4 90 4q19 0 29 -24t10 -47l-1 -3l-1 -3q-18 0 -53.5 3t-53.5 3q-30 0 -30 -58v-256q0 -8 3.5 -16.5t9 -15.5t10.5 -13t9 -10
l3 -4l-17 -15q-18 -14 -18 -30v-296q0 -13 6 -20t24 -9.5t35.5 -2t40 1.5t27.5 1q7 0 7 -9z" />
    <glyph glyph-name="backslash" unicode="\" horiz-adv-x="392" 
d="M385 -18h-62l-315 744h62z" />
    <glyph glyph-name="bracketright" unicode="]" horiz-adv-x="400" 
d="M326 682q0 -12 -4 -13q-13 13 -25 13q-10 0 -15.5 -10t-5.5 -21v-282q0 -8 3.5 -16.5t9 -15.5t11 -13t8.5 -10l4 -4q0 -2 -9 -8t-18 -17t-9 -22v-302q0 -34 14 -34q4 0 9 3.5t9 3.5q3 0 3 -9q0 -26 -11 -45t-35 -19q-9 0 -16 4.5t-11 10t-5 5.5q-6 -20 -23 -20
q-7 0 -15 12t-10 12q-20 0 -60 -6t-60 -6q-16 0 -25 23t-9 42q0 9 6 9q5 0 27.5 -1t40 -1.5t35.5 2t24 9.5t6 20v296q0 16 -18 30l-17 15l3 4q4 4 9 10t10.5 13t9 15.5t3.5 16.5v256q0 58 -30 58q-18 0 -53.5 -3t-53.5 -3l-1 3l-1 3q0 23 10 47t29 24q31 0 91 -4
q5 0 15.5 -4t14.5 -4q2 0 8.5 9t14.5 9q13 0 22 -13l10 -12q14 12 39 12q18 0 29.5 -25.5t11.5 -46.5z" />
    <glyph glyph-name="asciicircum" unicode="^" horiz-adv-x="455" 
d="M420 384h-95l-97 238l-98 -238h-95l145 321h95z" />
    <glyph glyph-name="underscore" unicode="_" horiz-adv-x="500" 
d="M501 -155h-502v64h502v-64z" />
    <glyph glyph-name="grave" unicode="`" horiz-adv-x="400" 
d="M307 654q0 -11 -9 -11t-92.5 38t-103.5 38q-8 0 -8 5q0 11 18 46t27 35q6 0 22 -16q10 -10 73 -58t69 -62q4 -10 4 -15z" />
    <glyph glyph-name="a" unicode="a" horiz-adv-x="506" 
d="M488 50q0 -23 -24 -40t-48 -17q-46 0 -67 9t-47 44q-13 -29 -49.5 -45t-71.5 -16q-112 0 -141 99q-2 8 -4 24.5t-5 24.5q-1 5 -8.5 11.5t-7.5 11.5q0 4 6.5 10t7.5 9q3 6 4.5 19t3.5 18q14 43 45 66.5t62 29t67 20.5t56 41v84q0 15 -14.5 26.5t-30.5 11.5q-61 0 -61 -51
q0 -6 1 -10t3.5 -5t5 -1t7.5 0.5t8 0.5q6 0 10.5 -5.5t4.5 -11.5q0 -30 -35 -36q0 -3 2 -8t2 -8q0 -7 -5.5 -12t-13.5 -5q-20 0 -51 33q-12 -4 -18 -4q-12 0 -23 6t-11 17q0 7 7.5 14t7.5 10q0 74 49 110.5t126 36.5q101 0 149.5 -40t48.5 -136q0 -8 -0.5 -24t-0.5 -24
q0 -38 13 -47q2 -1 6.5 -3.5t8 -4t6 -5t2.5 -6.5q0 -10 -16 -13h1q-28 -3 -28 -71l1 -110q0 -5 3 -7.5t9 -3.5t11 -1t11 0.5t8 0.5q17 0 17 -17zM343 412q0 43 -26 70l-4 -9q6 -9 6 -43v-135q0 -11 -8.5 -16.5t-8.5 -7.5q0 -3 8 -9.5t9 -17.5v-97q0 -11 -5 -31t-5 -30l4 -8
q8 2 18 25t10 34l1 157zM265 292q-98 -41 -98 -132q0 -108 48 -108q25 0 36.5 24.5t11.5 52.5q0 27 1 81.5t1 81.5zM112 48q0 10 -4.5 28t-4.5 27q0 11 -0.5 32t-0.5 31v28q0 20 8 56h-4q-27 0 -27 -71q0 -6 -2 -9.5t-4.5 -5t-8 -4t-7.5 -3.5q0 -3 12 -8t12 -12v-28
q0 -8 10.5 -37.5t15.5 -29.5t5 6z" />
    <glyph glyph-name="b" unicode="b" horiz-adv-x="510" 
d="M495 275q0 -7 -12 -14.5t-12 -22.5q0 -32 -12 -71q-27 -88 -75 -137t-132 -49q-31 0 -56.5 15.5t-38.5 43.5q-31 -56 -65 -56q-28 0 -46.5 14.5t-18.5 41.5q0 17 14 17q3 0 10 -2.5t11 -2.5q7 0 7 10v174q0 10 -21.5 18t-21.5 17q0 6 21.5 19t21.5 24v320l-3.5 7
t-5.5 8.5t-6 3.5q-6 0 -15 -4.5t-14 -4.5q-14 0 -14 19q0 24 17 43.5t40 19.5q30 0 46 -7q5 6 11 9.5t15 5t13 2t16.5 0t14.5 -0.5q10 0 21 -7.5t11 -17.5l-1 -187q8 16 27.5 27t38.5 11q77 0 114.5 -44.5t60.5 -128.5q3 -13 7 -36.5t6 -32.5q4 -15 15 -26.5t11 -17.5z
M368 131v224q0 114 -22 114q-5 0 -5 -6q0 -7 1 -23t1 -23v-124q0 -4 -4.5 -11.5t-4.5 -10.5q0 -4 6 -10t6 -11v-161q0 -15 10 -20q12 29 12 62zM305 164q0 84 -13 92l-6 3t-5.5 3.5t-3 4t-1.5 6.5q0 10 12.5 14.5t13.5 6.5t1 52q0 109 -19 129q-9 10 -27 10q-15 0 -25 -11
q-19 -22 -19 -167v-13q1 -2 14 -6.5t13 -14.5q0 -9 -13 -14.5t-13 -12.5q0 -11 -0.5 -33t-0.5 -33q0 -133 44 -133q48 0 48 117zM126 138v444q0 36 -21 57q-4 -10 -4 -81q0 -43 1 -129.5t1 -129.5q0 -4 -2 -7.5t-3.5 -4.5t-7 -3.5t-6.5 -3.5q2 -7 9.5 -12t9.5 -12
q3 -8 3 -45q0 -23 -1.5 -69t-1.5 -69q0 -6 2 -16q10 5 15.5 33.5t5.5 47.5z" />
    <glyph glyph-name="c" unicode="c" horiz-adv-x="469" 
d="M449 127q0 -71 -56 -108t-131 -37q-83 0 -136.5 45.5t-64.5 127.5q-1 9 -1 50q0 15 -1 23.5t-7 18t-18 12.5q-16 5 -16 13q0 5 4 8.5t11 6.5t9 4q6 4 8.5 11t3 11.5t0 15t-0.5 12.5q0 101 55.5 161t155.5 60q75 0 118.5 -36.5t43.5 -110.5q0 -3 7.5 -9.5t7.5 -14.5
q0 -11 -11 -17t-23 -6q-3 0 -9.5 2t-8.5 2q-31 -33 -50 -33t-19 17q0 4 1.5 13t1.5 13q-35 6 -35 36q0 4 1 7t2 4.5t4.5 2.5t5 1h6.5h6q16 0 16 17q0 20 -19 30.5t-41 10.5q-15 0 -30.5 -11.5t-15.5 -26.5v-139q0 -13 20 -20.5t20 -14.5t-38 -31q0 -20 0.5 -61t0.5 -61
q0 -37 25.5 -55.5t63.5 -18.5q40 0 65 32t25 73q0 18 16 18q11 0 19.5 -17.5t8.5 -30.5zM134 86q0 9 -4.5 25t-4.5 24v33q0 32 -0.5 94t-0.5 94v51q0 37 7 45l-5 9q-25 -25 -25 -71v-87q0 -5 -1.5 -8.5t-3 -4.5t-5 -3.5t-6.5 -4.5q1 -7 9.5 -12.5t8.5 -10.5v-123
q0 -10 10.5 -34t18.5 -25l1 5l1 2v2z" />
    <glyph glyph-name="d" unicode="d" horiz-adv-x="512" 
d="M498 40q0 -26 -17 -41t-45 -15q-12 0 -22 9q-4 0 -18.5 -4.5t-20.5 -4.5q-15 0 -18.5 6.5t0 23t3.5 21.5q0 1 -2 5q-12 -26 -49 -42.5t-70 -16.5q-44 0 -74.5 13t-51 42t-31.5 56t-26 75q-12 39 -12 71q0 15 -12 23t-12 14q0 4 11.5 18.5t14.5 25.5t6.5 34.5t6.5 34.5
q23 83 61 128t114 45q25 0 45.5 -9.5t20.5 -31.5v114q-1 1 -3.5 6.5t-5.5 9t-6 3.5q-6 0 -15 -4.5t-14 -4.5q-14 0 -14 19q0 23 17 43t40 20q30 0 46 -7q15 16 47 16q55 0 55 -25v-69q0 -149 2 -224q0 -14 3 -47.5t3 -51.5q0 -11 17 -26t17 -21q0 -9 -21.5 -17t-21.5 -18
v-174q0 -10 7 -10q3 0 15 2.5t16 2.5q14 0 14 -17zM367 148v434q0 37 -21 58q-4 -14 -4 -60q0 -47 1 -140.5t1 -140.5q0 -4 -2 -7.5t-3.5 -4.5t-7 -3.5t-6.5 -3.5q2 -6 9 -11t10 -13t3 -45q0 -23 -1.5 -64t-1.5 -64q0 -7 2 -17q10 5 15.5 33.5t5.5 48.5zM302 180
q0 11 -0.5 33t-0.5 33q0 7 -13 12.5t-13 14.5q0 10 13 14.5t14 6.5v87q0 104 -44 104q-17 0 -27 -10q-19 -19 -19 -129q0 -50 1 -52t13.5 -6.5t12.5 -14.5q0 -4 -1.5 -6.5t-3 -4t-5.5 -3.5l-6 -3q-13 -8 -13 -78q0 -97 24 -121q10 -10 24 -10q44 0 44 133zM126 441q0 6 -5 6
q-6 0 -10 -7t-6 -19.5t-3.5 -25.5t-2 -30.5t-0.5 -29v-25.5v-15l-13 -24l13 -23q0 -9 -0.5 -27.5t-0.5 -27.5q0 -60 13 -91q10 8 10 20q0 124 3 270q0 8 1 24.5t1 24.5z" />
    <glyph glyph-name="e" unicode="e" horiz-adv-x="486" 
d="M466 287q0 -11 -11 -17t-23 -6q-4 0 -13 3.5t-10 3.5l-181 -52v-107q0 -60 79 -60q41 0 70.5 32.5t29.5 72.5q0 18 16 18q11 0 19.5 -17.5t8.5 -30.5q0 -72 -56 -108.5t-131 -36.5q-83 0 -137 45.5t-64 127.5q-1 8 -1 46q0 54 -26 58h1q-17 3 -17 13q0 7 24 19
q14 7 11 50q-6 84 49.5 152t151.5 68q85 0 138.5 -46t54.5 -156q0 -2 1 -12t1 -13q0 -14 7.5 -27.5t7.5 -19.5zM367 419q0 17 -6.5 33.5t-20.5 16.5h-3q7 -40 7 -51v-20q0 -5 -6.5 -7.5t-6.5 -6.5t11 -10q2 -7 2 -33q0 -10 -4 -22t-4 -21l6 -9q7 0 15.5 17.5t8.5 36.5z
M299 291v160q0 40 -36 40q-15 0 -24.5 -11.5t-9.5 -26.5v-184zM128 86q0 9 -4.5 25t-4.5 24v33q0 28 -1 86t-1 86v71q0 33 7 42v5q0 6 -5 4q-27 -28 -27 -93q0 -11 1.5 -33.5t1.5 -33.5q0 -5 -1.5 -8.5t-3 -4.5t-5 -3.5t-6.5 -4.5q1 -6 9.5 -11.5t8.5 -10.5v-123
q0 -11 10.5 -34.5t18.5 -24.5q0 1 1 4t1 5z" />
    <glyph glyph-name="f" unicode="f" horiz-adv-x="338" 
d="M374 616q0 -8 -9 -14.5t-18 -6.5q-7 0 -11 3q-15 -22 -33 -22q-21 0 -25 8q10 8 10 21q-30 0 -30 34q0 10 8 10q2 0 7 -2t7 -2q15 0 15 17q0 18 -33 18q-20 0 -34.5 -16t-14.5 -36v-86h118v-50h-118v-167q0 -11 21 -23.5t21 -19.5q0 -9 -21 -16.5t-21 -16.5v-175
q0 -5 3 -8t8.5 -3.5t10.5 -0.5t11.5 0.5t8.5 0.5q7 0 12 -5t5 -12q0 -21 -14.5 -39t-35.5 -18q-5 0 -11 3t-13.5 8l-10.5 7q-19 -17 -32 -17q-16 0 -28 12q-17 -12 -37 -12q-27 0 -46 15t-19 41q0 17 13 17q4 0 11 -2.5t11 -2.5q6 0 6 10v174q0 11 -21 18t-21 17
q0 8 21 19.5t21 23.5v172h-46v50h46v45q0 20 -37 31q25 14 42 33t26 34.5t23.5 29.5t44.5 22t79 8q47 0 79.5 -27.5t32.5 -74.5q0 -13 9 -17.5t9 -9.5zM145 657l-4 8q-44 -27 -44 -120q0 -46 2 -123t2 -123q0 -4 -2 -7.5t-3.5 -4.5t-7 -3.5t-6.5 -3.5q2 -7 9.5 -12t9.5 -12
q3 -8 3 -45q0 -23 -1.5 -69t-1.5 -69q0 -6 2 -16q21 9 21 104q0 60 -2 164.5t-2 164.5t1 90q1 15 12.5 45.5t11.5 31.5z" />
    <glyph glyph-name="g" unicode="g" horiz-adv-x="533" 
d="M545 606q0 -13 -11 -22q8 -16 8 -25t-6.5 -19t-15.5 -12l-8 2l-7 15q-8 -18 -22 -18q-8 0 -17.5 4.5t-9.5 11.5q0 3 6.5 9t6.5 12t-6.5 11t-12.5 5q-20 0 -36.5 -17t-18.5 -38q19 -17 38 -43t26 -46q2 -5 4.5 -23t7.5 -27q2 -3 8.5 -10t12 -13.5t5.5 -7.5q0 -5 -11.5 -11
t-11.5 -16q0 -21 -13 -51q-59 -135 -200 -135q-57 0 -100 21q-20 -16 -20 -30q0 -29 74 -29q9 0 27.5 0.5t27.5 0.5q6 0 14.5 7.5t13.5 7.5q4 0 13 -9t14 -11q9 -3 26.5 -5.5t24.5 -4.5q58 -16 97 -49.5t39 -87.5q0 -165 -265 -165q-32 0 -66 4.5t-73 15.5t-64 35t-25 57
q0 36 22.5 57t58.5 23q-29 12 -38.5 34t-9.5 58q0 63 90 102q-37 24 -65 70t-28 88q0 7 -12 12.5t-12 10.5q0 4 2 6t6.5 3.5t5.5 2.5q4 2 6.5 4.5t4 6t2 6t1 7.5t0.5 8q12 76 70.5 119t137.5 43q46 0 88 -15q9 38 39.5 63t70.5 25q12 0 31 -7.5t26 -7.5q4 0 8 4t8 4
q13 0 13 -21zM372 248v158q0 20 -6.5 53.5t-18.5 33.5l-3 -8q0 -6 1.5 -17.5t1.5 -16.5v-86q0 -6 -9 -15q1 -5 6 -9.5t5 -6.5v-117q0 -11 9 -16q14 23 14 47zM308 287q0 48 -12 54q-2 1 -5.5 2t-5.5 2t-4 3t-2 5q0 8 12.5 10.5t14.5 4.5v53q0 72 -45 72t-45 -87v-38
q2 -2 14.5 -4.5t12.5 -10.5q0 -7 -13 -10.5t-13 -8.5q0 -8 -0.5 -24t-0.5 -24q0 -76 45 -76q17 0 27.5 6t14.5 20.5t4.5 23t0.5 27.5zM150 201q-1 14 -19 63t-18 86q0 21 4 41.5t13 51.5t11 40l-3 8q-27 -11 -38 -68t-29 -68q22 -19 33 -71t46 -83zM461 -88q0 9 -3 16.5
t-10 14.5t-14 12.5t-18 11t-19 9t-20.5 8t-19.5 6.5t-19 5.5t-15 4.5l-20 23q-19 -12 -28 -12q-32 0 -92.5 11t-78.5 25q-2 -8 -2 -10q0 -12 23.5 -20.5t45.5 -10.5q59 -6 151.5 -29.5t111.5 -50.5q16 -22 20 -38q7 21 7 24zM399 -107q0 20 -37.5 36t-58.5 16
q-5 0 -18.5 -10t-17.5 -10q-3 0 -8 13.5t-10 14.5q-3 1 -109 15q-39 -24 -39 -50q0 -20 16.5 -33.5t42.5 -19.5t46 -8t39 -2q17 0 36.5 1t49.5 4.5t49 12t19 20.5z" />
    <glyph glyph-name="h" unicode="h" horiz-adv-x="535" 
d="M527 46q0 -21 -15 -39t-36 -18q-5 0 -11 3t-13.5 8l-10.5 7q-19 -17 -31 -17q-17 0 -29 12q-16 -12 -37 -12q-58 0 -58 56q0 17 14 17q4 0 7 -2.5t7 -2.5q7 0 7 10v174q0 11 -21.5 18.5t-21.5 16.5q0 7 21.5 19.5t21.5 23.5v49q0 23 -0.5 34.5t-4.5 35t-15 35t-28 11.5
q-20 0 -32.5 -9.5t-17.5 -28t-6.5 -32t-1.5 -34.5v-56q2 -2 14 -11.5t20 -17.5t8 -14q0 -8 -21 -16.5t-21 -16.5v-175q0 -4 2 -7t6 -3.5t7 -1t8 0t6 0.5q17 0 17 -17q0 -21 -11 -39t-31 -18q-7 0 -18 9t-12 9q-19 -17 -32 -17q-16 0 -28 12q-16 -12 -37 -12
q-28 0 -46.5 14.5t-18.5 41.5q0 17 13 17q4 0 11 -2.5t11 -2.5q6 0 6 10v174q0 11 -21 18.5t-21 16.5q0 6 8.5 12.5t20.5 14t15 10.5v320q-1 1 -4 6t-5.5 9t-5.5 4q-6 0 -15 -4.5t-14 -4.5q-14 0 -14 19q0 23 17 43t40 20q30 0 46 -7q15 16 47 16q55 0 55 -25l-1 -192
q12 21 41 32t52 11q84 0 122.5 -53.5t38.5 -140.5v-48q2 -2 13.5 -9.5t19 -14.5t7.5 -13q0 -8 -21.5 -16.5t-21.5 -16.5v-175q0 -5 3.5 -7.5t9 -3.5t10.5 -1t11.5 0.5t8.5 0.5q17 0 17 -17zM377 136v278q0 35 -20 55q-2 -6 -3.5 -25t-1.5 -42.5v-45v-39.5l1 -18
q0 -10 -13 -17q-3 -1 -4 -2q2 -7 5.5 -10t7 -4.5t6 -12t2.5 -31.5q0 -25 -1.5 -74.5t-1.5 -74.5q0 -9 3 -16q10 5 15 32.5t5 46.5zM127 138v444q0 36 -21 57q-4 -10 -4 -81q0 -43 1 -129.5t1 -129.5q0 -4 -2 -7.5t-3.5 -4.5t-7 -3.5t-6.5 -3.5q2 -7 9.5 -12t9.5 -12
q3 -8 3 -45q0 -23 -1.5 -69t-1.5 -69q0 -6 2 -16q10 5 15.5 33.5t5.5 47.5z" />
    <glyph glyph-name="i" unicode="i" horiz-adv-x="311" 
d="M250 682q0 -3 -10.5 -12.5t-11.5 -12.5q-3 -9 -7 -18q-22 -40 -65 -40q-34 0 -56 35q-2 3 -5 9t-5 9q-2 2 -9.5 6t-8.5 8l6 7q5 7 6 9q5 28 24.5 45.5t47.5 17.5q44 0 64 -33q2 -2 4 -7t2 -6q1 -3 12.5 -8.5t11.5 -8.5zM288 46q0 -21 -15 -39t-36 -18q-5 0 -11 3t-13.5 8
l-10.5 7q-19 -17 -31 -17q-17 0 -29 12q-16 -12 -37 -12q-28 0 -46.5 14.5t-18.5 41.5q0 17 14 17q3 0 10.5 -2.5t10.5 -2.5q7 0 7 10v174q0 10 -21.5 18t-21.5 17q0 6 21.5 19t21.5 24v147q0 13 -16 13q-6 0 -14.5 -4.5t-13.5 -4.5q-15 0 -15 19q0 23 17.5 43t40.5 20
q31 0 46 -7q15 16 39 16h31q31 0 31 -20v-217q0 -10 21.5 -23.5t21.5 -19.5q0 -8 -21.5 -16.5t-21.5 -16.5v-175q0 -12 22 -12q4 0 11 0.5t10 0.5q7 0 12 -5t5 -12zM133 646q0 8 -2.5 24t-2.5 22q0 8 -3 8q-2 -1 -4 -5q-4 -13 -9 -19l-1 -1q-2 -1 -2 -2q1 -2 8.5 -12.5
t9.5 -13.5l1 -2l3 -3q2 0 2 4zM139 136v275q0 36 -20 55q-4 -10 -4.5 -42t0.5 -78t1 -49q0 -4 -2 -7t-3.5 -4.5t-6 -3.5t-6.5 -3q2 -7 5.5 -9.5t6.5 -3.5t5 -11t2 -31q0 -25 -0.5 -75.5t-0.5 -75.5q0 -1 3 -16q10 4 15 32t5 47z" />
    <glyph glyph-name="j" unicode="j" horiz-adv-x="311" 
d="M247 682q0 -3 -10.5 -12.5t-11.5 -12.5q-3 -9 -7 -18q-22 -40 -65 -40q-34 0 -56 35q-2 3 -5 9t-5 9q-2 2 -9.5 6t-8.5 8l5 7q6 7 7 9q5 28 24.5 45.5t47.5 17.5q45 0 64 -33q2 -2 4 -7t2 -6q1 -3 12.5 -8.5t11.5 -8.5zM269 276q0 -8 -21 -17t-21 -16v-284
q0 -10 12 -18.5t25 -12.5q-23 -12 -44 -42t-32 -40q-52 -45 -131 -45q-61 0 -97 31.5t-36 84.5q0 10 -3 14.5t-7 5t-7 3t-3 7.5q0 9 10.5 16t19.5 7l12 -3q15 21 26 24q5 1 11 1t16.5 -3.5t10.5 -8.5t-5.5 -10t-5.5 -9l1 -2q33 0 33 -38q0 -11 -9 -11q-2 0 -7 2.5t-8 2.5
q-18 0 -18 -22q0 -13 11.5 -20t28.5 -7q18 0 33.5 15.5t15.5 36.5v319q0 10 -21 17.5t-21 16.5q0 6 21 18.5t21 23.5v2q0 2 -0.5 8t-0.5 42.5v101.5q0 13 -15 13q-6 0 -15 -4.5t-14 -4.5q-14 0 -14 19q0 23 17 43t40 20q31 0 46 -7q15 16 40 16h31q31 0 31 -20
q1 -129 1 -223q0 -10 21 -24t21 -19zM130 646q0 8 -2.5 24t-2.5 22q0 8 -3 8q-2 -1 -4 -5q-4 -13 -9 -19l-1 -1q-2 -1 -2 -2q1 -2 8.5 -12.5t9.5 -13.5l1 -2l3 -3q2 0 2 4zM139 -25v436q0 36 -20 55q-4 -10 -4.5 -42t0.5 -78t1 -49q0 -4 -2 -7t-3.5 -4.5t-6 -3.5t-6.5 -3
q2 -7 5.5 -9.5t6.5 -3.5t5 -11t2 -31q0 -25 -0.5 -156t-0.5 -156q0 -1 3 -16q10 4 15 32t5 47z" />
    <glyph glyph-name="k" unicode="k" horiz-adv-x="532" 
d="M544 29q0 -16 -9 -27t-24 -11q-6 0 -12.5 2.5t-14 7t-11.5 6.5q-11 -17 -25 -17q-16 0 -33 12q-13 -12 -55 -12q-26 0 -45.5 14t-19.5 39q0 20 9 20q4 0 11.5 -2.5t11.5 -2.5l4 5q-1 11 -5 22.5t-11 27t-9 22.5l-56 153l-37 -80v-134q0 -5 3 -7.5t8 -3.5t9.5 -1t10.5 0.5
t8 0.5q21 0 21 -17q0 -21 -15 -39t-36 -18q-5 0 -11 3t-13.5 8l-10.5 7q-19 -17 -31 -17q-17 0 -29 12q-17 -12 -37 -12q-27 0 -46 15t-19 41q0 17 14 17q4 0 11 -2.5t10 -2.5q7 0 7 10v174q0 11 -21.5 18t-21.5 17q0 7 21.5 19.5t21.5 23.5v315q0 13 -16 13q-5 0 -14 -4.5
t-14 -4.5q-15 0 -15 19q0 24 17.5 43.5t40.5 19.5q30 0 46 -7q16 17 58 17q43 0 43 -21v-406q122 174 122 180q0 15 -21 15q-4 0 -13 -1.5t-14 -1.5q-17 0 -17 26q0 17 16 28t34 11q14 0 38 -12q5 1 15 8.5t19 7.5q21 0 31 -17q13 16 46 16q18 0 29 -14t11 -33
q0 -21 -21 -21q-9 0 -26.5 2.5t-26.5 2.5q-8 0 -18 -7t-21 -19.5t-18.5 -22.5t-17.5 -24.5t-12 -17.5l33 -85q4 -10 32 -24t28 -21q0 -8 -16 -15t-16 -14q5 -14 25 -78.5t36 -96.5q2 -5 5.5 -7.5t8.5 -3.5t8.5 -1.5t10 0t8.5 0.5q18 0 25.5 -8t7.5 -27zM375 89q0 41 -63 196
q-6 16 -13 16q-12 0 -12 -9t37 -107t45 -111q6 4 6 15zM120 136v443q0 35 -20 55q-4 -11 -4 -336q0 -4 -1.5 -7t-3 -4.5t-6.5 -3.5t-6 -3q2 -7 5.5 -10t7 -4.5t6 -12t2.5 -31.5q0 -25 -1.5 -74.5t-1.5 -74.5q0 -1 3 -16q10 4 15 32t5 47z" />
    <glyph glyph-name="l" unicode="l" horiz-adv-x="311" 
d="M288 46q0 -21 -14.5 -39t-35.5 -18q-5 0 -11 3t-13.5 8l-10.5 7q-19 -17 -32 -17q-16 0 -28 12q-17 -12 -37 -12q-28 0 -46.5 14.5t-18.5 41.5q0 17 13 17q3 0 10.5 -2.5t11.5 -2.5q6 0 6 10v174q0 10 -21 18t-21 17q0 6 21 19t21 24v320q0 13 -15 13q-6 0 -15 -4.5
t-14 -4.5q-14 0 -14 19q0 23 17 43t40 20q31 0 46 -7q15 16 40 16h31q31 0 31 -20v-390q0 -10 21 -23.5t21 -19.5q0 -8 -21 -16.5t-21 -16.5v-175q0 -12 22 -12q3 0 10 0.5t10 0.5q7 0 12 -5t5 -12zM133 144v444q0 36 -21 57q-5 -13 -5 -81q0 -43 1.5 -129.5t1.5 -129.5
q0 -4 -2 -7.5t-3.5 -4.5t-7 -3.5t-6.5 -3.5q2 -7 9.5 -12t9.5 -12q3 -8 3 -45q0 -23 -1.5 -69t-1.5 -69q0 -6 2 -16q10 5 15.5 33.5t5.5 47.5z" />
    <glyph glyph-name="m" unicode="m" horiz-adv-x="772" 
d="M763 46q0 -20 -14.5 -37.5t-34.5 -17.5q-6 0 -33 16q-17 -17 -30 -17q-15 0 -27 12q-15 -12 -35 -12q-26 0 -40.5 15t-14.5 41q0 17 13 17q3 0 7 -2.5t6 -2.5q7 0 7 10v174q0 11 -20.5 18.5t-20.5 16.5q0 7 20 19t21 24v15.5v22.5v15q0 112 -56 112q-25 0 -40.5 -30.5
t-15.5 -57.5q0 -13 0.5 -39t0.5 -39q2 -2 13 -9.5t18 -14.5t7 -13q0 -9 -20 -16.5t-20 -16.5v-175q0 -6 3.5 -9t7 -3t11 0.5t8.5 0.5q7 0 12 -5t5 -12q0 -21 -9.5 -38t-29.5 -17q-6 0 -33 16q-17 -17 -30 -17q-15 0 -27 12q-15 -12 -35 -12q-26 0 -40.5 15t-14.5 41
q0 17 13 17q3 0 7 -2.5t6 -2.5q7 0 7 10v174q0 11 -20.5 18.5t-20.5 16.5q0 7 20.5 19.5t20.5 23.5v60q0 35 -13.5 70t-42.5 35q-57 0 -55 -151v-5v-4q3 -3 14 -12t18.5 -17t7.5 -14q0 -9 -20 -16.5t-20 -16.5v-175q0 -4 1.5 -7t5.5 -3.5t6.5 -1t8 0t6.5 0.5q7 0 11.5 -5
t4.5 -12q0 -22 -8.5 -39t-28.5 -17q-5 0 -10.5 3t-11.5 7.5t-9 6.5q-17 -17 -31 -17t-26 12q-15 -12 -36 -12q-26 0 -43.5 15t-17.5 41q0 17 12 17q4 0 11 -2.5t10 -2.5q6 0 6 10v174q0 11 -20 18.5t-20 16.5q0 6 8 13t19 14t14 10v145q-1 1 -3.5 6.5t-5 9t-5.5 3.5
q-5 0 -13.5 -4.5t-13.5 -4.5q-14 0 -14 19q0 24 16 43.5t39 19.5q27 0 43 -7q15 18 61 18q14 0 22 -3t11 -11t3.5 -14t-0.5 -19.5t-1 -18.5q13 28 47 46.5t66 18.5q92 0 122 -78q40 78 130 78q33 0 58 -9t39.5 -29t23.5 -38t12.5 -50.5t4 -51t0.5 -54.5v-10q2 -2 13 -9.5
t18 -14.5t7 -13q0 -9 -20 -16.5t-20 -16.5v-175q0 -5 3 -7.5t8.5 -3.5t10 -1t10.5 0.5t8 0.5q7 0 12 -5t5 -12zM622 434q0 14 -12 35t-26 25q14 -31 14 -87v-101q0 -17 -17 -28q2 -6 8 -11q5 -5 7 -10q2 -6 2 -21q0 -5 -0.5 -13t-0.5 -10v-47v-54q0 -43 4 -56q10 5 15 33
t5 45zM371 434q0 14 -12 35t-26 25q14 -31 14 -87v-101q0 -17 -17 -28q2 -6 8 -11t7 -10q2 -6 2 -21q0 -5 -0.5 -13t-0.5 -10v-47v-54q0 -43 4 -56q10 5 15 33t5 45zM131 135v272q0 37 -20 58q-6 -23 -4 -84q2 -68 2 -84q0 -9 -9 -13l-10 -5q2 -8 10 -13q7 -5 9 -11
q2 -8 2 -21v-24q0 -23 -1 -68.5t-1 -68.5q0 -8 2 -17q10 5 15 32.5t5 46.5z" />
    <glyph glyph-name="n" unicode="n" horiz-adv-x="535" 
d="M527 50q0 -21 -15 -39t-36 -18q-7 0 -35 14q-19 -17 -31 -17q-17 0 -29 12q-16 -12 -37 -12q-58 0 -58 56q0 17 14 17q4 0 7 -2.5t7 -2.5q7 0 7 10v174q0 11 -21.5 18.5t-21.5 16.5q0 7 21.5 19.5t21.5 23.5v49q0 23 -0.5 34.5t-4.5 35t-15 35t-28 11.5
q-27 0 -42.5 -33.5t-15.5 -70.5v-56q2 -2 14 -11.5t20 -17.5t8 -14q0 -8 -21 -16.5t-21 -16.5v-171q0 -4 2 -7t6 -3.5t7 -1t8 0t6 0.5q17 0 17 -17q0 -21 -11 -39t-31 -18q-5 0 -30 14q-19 -17 -32 -17q-16 0 -28 12q-16 -12 -37 -12q-28 0 -46.5 14.5t-18.5 41.5
q0 17 13 17q4 0 11 -2.5t11 -2.5q6 0 6 10v174q0 11 -21 18.5t-21 16.5q0 6 8.5 12.5t20.5 14t15 10.5v145q-1 1 -4 6t-5.5 9t-5.5 4q-6 0 -15 -4.5t-14 -4.5q-14 0 -14 19q0 23 17 43t40 20q30 0 46 -7q16 17 47 17l6 1h11t12 -1t12.5 -2.5t9 -6t3.5 -10.5v-46
q16 34 49 49.5t59 15.5q43 0 72.5 -14.5t45 -42.5t22 -61t6.5 -76v-48q2 -2 13.5 -9.5t19 -14.5t7.5 -13q0 -8 -21.5 -16.5t-21.5 -16.5v-165q0 -17 43 -17q17 0 17 -17zM371 434q0 14 -12 35t-26 25q14 -31 14 -87v-101q0 -17 -17 -28q2 -6 8 -11t7 -10q2 -6 2 -21
q0 -5 -0.5 -13t-0.5 -10v-47v-54q0 -43 4 -56q10 5 15 33t5 45zM131 135v272q0 37 -20 58q-6 -23 -4 -84q2 -68 2 -84q0 -9 -9 -13l-10 -5q2 -8 10 -13q7 -5 9 -11q2 -8 2 -21v-24q0 -23 -1 -68.5t-1 -68.5q0 -8 2 -17q10 5 15 32.5t5 46.5z" />
    <glyph glyph-name="o" unicode="o" horiz-adv-x="522" 
d="M497 275q0 -7 -11.5 -14t-11.5 -23q0 -28 -13 -71q-53 -186 -200 -186q-144 0 -199 185q-13 41 -13 78q0 9 -12 16.5t-12 14.5q0 5 2 8t6.5 5.5t5.5 3.5q5 5 8 10.5t4 9.5t1.5 12.5t0.5 11.5q11 94 65 159.5t143 65.5q77 0 126.5 -47t71.5 -126q3 -10 5 -21.5t4 -25.5
t3 -22q3 -19 14.5 -28t11.5 -16zM372 131v216q0 120 -22 120q-6 0 -6 -15q0 -7 1.5 -21t1.5 -21v-118q0 -4 -4.5 -11.5t-4.5 -10.5q0 -4 5.5 -10t5.5 -11v-160q0 -16 10 -19q13 28 13 61zM308 187q0 62 -12 69q-17 8 -17 17q0 11 13 15t14 6v52q0 109 -18 129q-9 10 -27 10
q-16 0 -26 -11q-19 -22 -19 -128v-52q1 -2 14 -6t13 -15q0 -9 -13 -14.5t-13 -12.5q0 -11 -0.5 -33t-0.5 -33q0 -124 45 -124q9 0 16 3t11.5 9.5t8 13t5.5 17.5t3.5 18.5t2 20t0.5 18.5v17.5v13.5zM158 68q0 15 -5 31q-32 104 -32 172q0 22 3 48t6 42t10 49t9 44l-2 10
q-27 -13 -39 -93.5t-28 -93.5q13 -11 20 -53.5t19 -88.5t39 -67z" />
    <glyph glyph-name="p" unicode="p" horiz-adv-x="510" 
d="M495 275q0 -6 -12 -14.5t-12 -22.5q0 -40 -9.5 -81.5t-29.5 -83t-57.5 -67.5t-86.5 -26q-38 0 -71 27v-126q0 -12 22 -12q2 0 9 0.5t10.5 0t8.5 -1.5t7 -5t2 -10q0 -21 -14.5 -39t-35.5 -18q-5 0 -11 3t-14 8.5t-10 6.5q-19 -17 -32 -17q-16 0 -28 12q-17 -12 -37 -12
q-28 0 -46.5 14.5t-18.5 41.5q0 17 13 17q4 0 11 -2.5t11 -2.5q6 0 6 10q-1 120 -1 361q0 11 -21.5 18.5t-21.5 16.5q0 7 21.5 19.5t21.5 23.5v144q-1 1 -4 6t-5.5 9t-5.5 4q-6 0 -15 -4.5t-14 -4.5q-14 0 -14 19q0 24 17 43.5t40 19.5q30 0 46 -7q16 18 52 18
q30 0 38 -10.5t8 -41.5q6 22 33 37t52 15q33 0 58 -10.5t39.5 -23t27.5 -40.5t18.5 -45t15.5 -54q3 -11 6.5 -34t6.5 -35q2 -9 14 -24.5t12 -19.5zM368 128v229q0 118 -22 118q-5 0 -5 -7q0 -8 1 -23.5t1 -23.5v-127q0 -4 -8 -11.5t-8 -10.5q0 -4 9.5 -10.5t9.5 -11.5v-166
q0 -15 10 -20q12 29 12 64zM305 164q0 84 -13 92l-6 3t-5.5 3.5t-3 4t-1.5 6.5q0 10 12.5 14.5t13.5 6.5t1 52q0 106 -19 126q-9 10 -27 10q-15 0 -25 -11q-19 -22 -19 -164v-13q1 -2 14 -6.5t13 -14.5q0 -9 -13 -14.5t-13 -12.5q0 -11 -0.5 -33t-0.5 -33q0 -123 44 -123
q48 0 48 107zM126 -65v477q0 37 -21 59q-4 -11 -4 -83l2 -88q0 -5 -2 -8t-4 -4.5t-6.5 -3.5t-6.5 -3q2 -7 9.5 -12.5t9.5 -12.5q3 -8 3 -46q0 -57 -1.5 -171t-1.5 -171q0 -7 2 -17q10 5 15.5 35t5.5 49z" />
    <glyph glyph-name="q" unicode="q" horiz-adv-x="500" 
d="M482 271q0 -9 -21.5 -16.5t-21.5 -18.5q0 -60 -0.5 -180.5t-0.5 -180.5q0 -10 6 -10q4 0 11 2.5t11 2.5q13 0 13 -17q0 -27 -19 -41.5t-46 -14.5q-20 0 -37 12q-12 -12 -28 -12q-13 0 -32 17l-10.5 -7t-13.5 -8t-11 -3q-21 0 -35.5 18t-14.5 39q0 17 21 17q2 0 7.5 -0.5
t10 -0.5t9.5 1t8 3.5t3 7.5v126q-33 -27 -71 -27q-47 0 -83.5 24.5t-57.5 63.5t-31.5 82.5t-10.5 87.5q0 14 -12 22.5t-12 14.5q0 4 12 21t14 23q4 12 7 35.5t6 33.5q46 173 186 173q35 0 55 -10t41 -39q11 16 37 32.5t39 16.5t21 -9.5t8 -22.5v-215q0 -11 21.5 -23.5
t21.5 -19.5zM295 180q0 11 -0.5 33t-0.5 33q0 7 -13 12.5t-13 14.5q0 10 13 14.5t14 6.5v13q0 140 -19 162q-10 11 -25 11q-18 0 -27 -10q-19 -20 -19 -124q0 -50 1 -52t13.5 -6.5t12.5 -14.5q0 -4 -1.5 -6.5t-3 -4t-5.5 -3.5l-6 -3q-13 -8 -13 -92q0 -105 48 -105
q44 0 44 121zM367 -60v471q0 37 -22 59q-3 -25 -3.5 -54t1 -65.5t1.5 -54.5q0 -3 -1 -6t-3.5 -4.5t-3.5 -2.5t-5.5 -3t-5.5 -2q2 -5 7.5 -12.5t7.5 -12.5q4 -10 4 -378q0 -5 2 -17q10 6 15.5 33.5t5.5 48.5zM121 436q0 7 -5 7q-6 0 -10 -7t-6 -20t-3.5 -26.5t-2 -31
t-0.5 -29v-26v-15.5l-13 -24l13 -22q0 -9 -0.5 -28t-0.5 -28q0 -60 13 -91q10 8 10 20q0 127 3 272q0 8 1 24.5t1 24.5z" />
    <glyph glyph-name="r" unicode="r" horiz-adv-x="446" 
d="M441 391q0 -11 -11 -17t-23 -6q-6 0 -18 4q-31 -33 -50 -33q-8 0 -13.5 5t-5.5 12q0 4 1.5 13t1.5 13q-35 6 -35 36q0 4 1 7t2 4.5t4.5 2.5t5 1h6.5h6q7 0 12 4.5t5 11.5q0 15 -8 26t-23 11q-38 0 -54.5 -29t-16.5 -70v-62q0 -11 21.5 -23.5t21.5 -19.5q0 -9 -21.5 -16.5
t-21.5 -16.5v-175q0 -5 3.5 -7.5t9 -3.5t10.5 -1t11.5 0.5t8.5 0.5q7 0 12 -5t5 -12q0 -21 -13 -37.5t-34 -16.5q-11 0 -39 15q-19 -17 -31 -17q-17 0 -29 12q-16 -12 -37 -12q-27 0 -46 15t-19 41q0 17 14 17q3 0 10.5 -2.5t10.5 -2.5q7 0 7 10v174q0 11 -21.5 18.5
t-21.5 16.5q0 7 21.5 19.5t21.5 23.5v147q0 13 -16 13q-5 0 -14 -4.5t-14 -4.5q-15 0 -15 19q0 24 17.5 43.5t40.5 19.5q30 0 46 -7q15 16 48 16q32 0 42 -11.5t10 -43.5q11 22 37 38.5t50 16.5q36 0 59.5 -10.5t34.5 -32.5t14.5 -45t3.5 -59q0 -3 7.5 -10t7.5 -14zM133 143
v275q0 35 -20 55q-3 -9 -4 -27t0 -44.5t1 -28.5v-69q0 -3 -1 -6t-3 -5t-3.5 -3t-5.5 -2.5t-5 -2.5q2 -6 4.5 -8.5t5.5 -4t5.5 -5t4 -13t1.5 -26.5q0 -25 -1.5 -74.5t-1.5 -74.5q0 -1 3 -16q10 4 15 32t5 48z" />
    <glyph glyph-name="s" unicode="s" horiz-adv-x="446" 
d="M410 151q0 -71 -53 -119t-125 -48q-88 0 -123 51q-1 -3 -5 -13t-7 -16.5t-8 -14.5t-11 -12.5t-13 -4.5q-21 0 -21 17q0 5 2.5 16t2.5 16q0 1 -0.5 3t-0.5 3q-19 10 -19 36q0 25 20 47q0 3 -2.5 10t-2.5 12q0 26 13 48.5t37 22.5q8 0 12 -4.5t4.5 -9t-0.5 -14t-1 -11.5
q0 -47 35 -82t82 -35q25 0 42 18.5t17 43.5q0 29 -47 72t-76 43q-9 0 -22 -7.5t-20 -8.5l-3 3q1 3 4.5 11t3.5 13q0 9 -13.5 24.5t-29 32t-29 45.5t-13.5 63q0 71 46.5 117.5t117.5 46.5q41 0 67 -7q2 -1 16 -6t20 -5q11 0 17 6t11 16.5t10 15.5q25 -18 25 -42q0 -5 -3 -15
t-3 -15q0 -4 3.5 -12t3.5 -13t-11 -35q-3 -8 -4 -26.5t-8 -26t-27 -7.5q-12 0 -12 15q0 5 1.5 15t1.5 15q0 29 -24.5 46.5t-55.5 17.5q-35 0 -49.5 -11.5t-14.5 -44.5q0 -21 35.5 -53.5t57.5 -32.5q9 0 23 7.5t18 7.5q8 0 8 -5q0 -2 -5 -12t-5 -16t17 -23.5t38 -38t38 -56
t17 -74.5zM338 133q0 34 -28.5 67t-64.5 54.5t-75 51t-55 55.5q-8 13 -17.5 39t-14.5 36q0 -4 -1 -12t-1 -12q0 -40 18 -66q7 -9 26 -30t27 -35t14 -14q26 0 40 -8q79 -46 114 -122q5 -11 13 -13z" />
    <glyph glyph-name="t" unicode="t" horiz-adv-x="355" 
d="M361 127q0 -145 -140 -145q-25 0 -45.5 4.5t-35.5 10.5t-26.5 18.5t-19 22.5t-12.5 28.5t-7.5 30.5t-3.5 35t-1 35.5t0.5 37.5t0.5 37q0 11 -21 18t-21 17q0 7 21 19t21 24v172h-61v50q33 0 56 42t37.5 84.5t25.5 42.5q3 0 7.5 -4.5t9 -11.5t8 -13.5t7.5 -13.5t5 -9
q24 73 47 74l5 -4v-187h114v-50h-114v-167q0 -11 21 -23.5t21 -19.5q0 -9 -21 -16.5t-21 -16.5v-135q0 -24 9 -43t31 -19q29 0 42.5 19t14 42.5t4 42.5t14.5 19q12 0 20 -17t8 -31zM144 85q0 10 -4 27t-5 23v34q0 63 -0.5 188.5t-0.5 188.5q0 37 -21 58q-5 -19 -5 -101
q0 -33 1.5 -99.5t1.5 -99.5q0 -11 -17 -22q2 -4 4.5 -7t4.5 -4t4 -2.5t3.5 -3.5t2.5 -6.5t1 -11.5q0 -9 -1 -27.5t-1 -27.5q0 -107 28 -116z" />
    <glyph glyph-name="u" unicode="u" horiz-adv-x="552" 
d="M527 63q0 -42 -29 -56.5t-76 -14.5q-24 0 -53.5 20.5t-45.5 42.5q-13 -29 -44 -47t-64 -18q-31 0 -54.5 8t-38.5 19t-26 32.5t-16 37.5t-7.5 46t-3 46t-0.5 49v14q0 11 -21.5 18.5t-21.5 16.5q0 7 21.5 19.5t21.5 23.5v147q0 13 -16 13q-5 0 -14 -4.5t-14 -4.5
q-15 0 -15 19q0 24 17.5 43.5t40.5 19.5q30 0 46 -7q15 17 63 17q38 0 38 -21v-217q0 -11 21.5 -23.5t21.5 -19.5q0 -8 -21.5 -16t-21.5 -17v-97q0 -22 2.5 -36t14.5 -27t34 -13q30 0 43.5 26.5t13.5 57.5v82q0 11 -21.5 18.5t-21.5 16.5q0 7 21.5 19.5t21.5 23.5v147
q0 13 -16 13q-5 0 -14 -4.5t-14 -4.5q-15 0 -15 19q0 24 17.5 43.5t40.5 19.5q30 0 46 -7q15 17 63 17q38 0 38 -21v-217q0 -11 21.5 -23.5t21.5 -19.5q0 -8 -21.5 -16t-21.5 -17v-157q1 -1 3.5 -6.5t5.5 -9t6 -3.5q6 0 15 4.5t14 4.5q14 0 14 -19zM381 116q0 49 -0.5 146.5
t-0.5 146.5q0 37 -20 57q-3 -11 -3 -167q0 -3 -1 -5.5t-1.5 -4t-3 -3.5t-3 -2.5t-4.5 -2.5t-5 -2q1 -5 11 -13.5t10 -36.5q0 -21 -1.5 -65t-1.5 -65q0 -8 10 -14q14 6 14 31zM146 56q0 13 -10 39.5t-10 41.5v272q0 37 -20 57q-3 -10 -3 -70v-85q1 -17 -1 -20.5t-17 -11.5
q2 -7 11 -13.5t9 -17.5q0 -6 -1.5 -19t-1.5 -19v-71q0 -41 24 -76q10 -12 11 -16q9 3 9 9z" />
    <glyph glyph-name="v" unicode="v" horiz-adv-x="520" 
d="M517 512q0 -7 -4 -14.5t-10 -7.5q-4 0 -10.5 3t-8.5 3q-21 0 -28 -15q-5 -10 -25.5 -85.5t-20.5 -84.5q0 -8 11 -17t11 -15q0 -8 -7 -11t-17 -9.5t-16 -20.5q-6 -17 -22.5 -89t-16.5 -86q0 -2 3.5 -3t8.5 -1h10.5t10.5 0.5t6 0.5q23 0 23 -18q0 -20 -21 -35t-42 -15
q-6 0 -17.5 10t-13.5 11q-24 -22 -47 -22q-15 0 -43 16v1q-4 -1 -19 -8.5t-24 -7.5q-22 0 -38 12.5t-16 34.5q0 5 2 8.5t6 4.5t6.5 1.5t8 0t6.5 -0.5q14 0 14 8q0 4 -23 90t-26 91q-3 6 -17.5 14t-14.5 19q0 6 1.5 9.5t7.5 7t8 4.5q-1 9 -23 93.5t-25 88.5q-8 12 -26 12
q-4 0 -11 -2.5t-11 -2.5q-5 0 -9.5 4t-4.5 10q0 22 20 36.5t42 14.5q5 0 15 -2t15 -2q4 0 23 7.5t29 7.5q8 0 30 -12q5 0 15 4t16 4q22 0 39 -14.5t17 -36.5q0 -13 -14 -13q-3 0 -8.5 0.5t-8.5 0.5q-13 0 -13 -5q0 -6 20 -79t43 -154.5t27 -97.5q4 13 28 94.5t38 139
t14 88.5q0 7 -3.5 11.5t-10 6.5t-12 3t-14 1.5t-11.5 0.5q8 51 45 51q9 0 21 -5q14 10 25 10q13 0 26 -10q8 5 18 5q16 0 29.5 -12.5t13.5 -29.5zM233 102q-1 3 -27 91q-28 99 -60 225q-10 37 -15 64q-4 12 -8 12q-10 0 -10 -20q0 -32 19.5 -94.5t20.5 -77.5q1 -8 -12 -16
q3 -3 7 -6t7 -5t5.5 -5.5t4.5 -8.5q4 -10 19.5 -76t24.5 -75q8 -8 18 -11z" />
    <glyph glyph-name="w" unicode="w" horiz-adv-x="779" 
d="M776 512q0 -6 -4 -14t-9 -8q-4 0 -10 3t-8 3q-20 0 -27 -15q-5 -10 -24.5 -85.5t-19.5 -84.5q0 -8 10.5 -17t10.5 -15q0 -8 -6.5 -11t-16 -9.5t-15.5 -20.5q-6 -16 -21.5 -88t-15.5 -86q0 -2 3 -3t8 -1h10t10 0.5t6 0.5q22 0 22 -18q0 -20 -20 -35t-40 -15q-5 0 -12 4
t-14.5 9.5t-10.5 7.5q-26 -23 -37 -23q-16 0 -42 16v1q-4 -1 -16.5 -8t-20.5 -7q-20 0 -37 15.5t-17 37.5q0 5 1.5 8.5t5.5 4.5t6.5 1.5t8 0t6.5 -0.5q14 0 13 8q-4 27 -63 248q-55 -224 -55 -253q0 -2 3 -3t8 -1h10t10 0.5t6 0.5q22 0 22 -18q0 -20 -20 -35t-40 -15
q-5 0 -10.5 3t-12 8t-9.5 6q-20 -18 -42 -18q-15 0 -41 16v1q-4 -1 -18.5 -8.5t-22.5 -7.5q-20 0 -36 12.5t-16 34.5q0 5 1.5 8.5t5.5 4.5t6.5 1.5t8 0t6.5 -0.5q14 0 14 8q0 4 -22 90t-24 91q-3 6 -17 14t-14 19q0 6 2 9.5t7.5 6.5t7.5 5q-1 9 -22 93.5t-24 88.5
q-8 12 -25 12q-3 0 -10 -2.5t-11 -2.5q-5 0 -9 4t-4 10q0 22 19 36.5t40 14.5q5 0 14 -2t14 -2q4 0 22.5 7.5t27.5 7.5q7 0 29 -12q5 0 14.5 4t14.5 4q21 0 37 -14.5t16 -36.5q0 -13 -13 -13q-3 0 -8.5 0.5t-8.5 0.5q-12 0 -12 -5q0 -6 19 -78.5t41 -155l26 -97.5
q3 13 19.5 70.5t29 105.5t19.5 85q-13 51 -17 59q-5 12 -24 12q-4 0 -11 -2.5t-10 -2.5q-5 0 -9 4t-4 10q0 22 18.5 36.5t39.5 14.5q5 0 14 -2t14 -2q4 0 17.5 7.5t22.5 7.5q17 0 39 -12q6 0 15.5 4t14.5 4q21 0 37 -14.5t16 -36.5q0 -13 -14 -13q-3 0 -8 0.5t-8 0.5
q-12 0 -12 -5q0 -6 19 -78.5t40.5 -155t25.5 -97.5q3 13 26.5 94.5t36.5 139t13 88.5q0 7 -3.5 11.5t-9.5 6.5t-11.5 3t-13.5 1.5t-10 0.5q8 51 42 51q11 0 21 -5q12 10 23 10q13 0 25 -10q8 5 17 5q15 0 28 -12.5t13 -29.5zM513 103q-3 18 -13.5 50t-12.5 40
q-31 113 -60 225q-21 76 -24 76q-10 0 -10 -20q0 -30 20 -88.5t20 -83.5q0 -7 -11 -16q3 -3 7 -6t7 -5t5.5 -5.5t4.5 -8.5q4 -11 14 -49t19.5 -70.5t16.5 -39.5q3 -3 7 -3q3 0 6 -1zM235 103q-2 14 -6.5 29t-11 33t-9.5 28q-28 99 -60 225q-10 37 -15 64q-4 12 -8 12
q-5 0 -8 -7.5t-3 -12.5q0 -30 20.5 -88.5t20.5 -83.5q0 -7 -11 -16q7 -7 16 -13q8 -6 28.5 -82t30.5 -86q4 -5 12 -7z" />
    <glyph glyph-name="x" unicode="x" horiz-adv-x="528" 
d="M525 54q0 -5 -4 -15q-10 -25 -19 -33.5t-33 -8.5q-28 0 -45 8q-23 -7 -32 -7t-36 9q-17 -10 -33 -10q-20 0 -39.5 8t-19.5 25q0 29 21 29q3 0 9 -1.5t9 -1.5q1 0 2.5 0.5t2.5 0.5q-1 16 -70 137q-7 -10 -23 -33t-27 -40.5t-20 -34.5q0 -10 12.5 -18.5t22.5 -8.5
q2 0 4.5 1t3.5 1q18 0 18 -17q0 -22 -16 -32t-39 -10q-14 0 -28 6q-17 -10 -34 -10q-18 0 -29 5q-5 -2 -15 -2q-23 0 -38.5 10.5t-15.5 32.5q0 7 4.5 14t11.5 7q4 0 11 -2.5t11 -2.5q21 0 35 18q10 12 44 65q48 75 61 93l12 17q0 3 -4 3q-6 3 -19 7.5t-20 7.5q-4 0 -4 3
q1 6 20 29q-3 5 -19 37.5t-29.5 58.5t-28 52.5t-20.5 32.5q-5 5 -12 5q-6 0 -18 -4t-19 -4q-9 0 -14.5 7.5t-5.5 16.5q0 22 21 36t45 14q19 0 39 -6q14 10 34 10q14 0 32 -9q7 0 20.5 4.5t21.5 4.5q20 0 36.5 -11t16.5 -30q0 -27 -36 -19q10 -22 56 -109l66 97
q-6 0 -18.5 -1t-18.5 -1q-24 0 -24 20q0 19 15.5 32.5t34.5 13.5q21 0 31 -4q13 9 31 9q11 0 27 -10q14 7 25 7q20 0 35 -13t15 -33q0 -18 -17 -18q-3 0 -11 1.5t-11 1.5q-12 0 -22 -3t-19.5 -12.5t-13 -13.5t-14 -20t-11.5 -18l-67 -97q4 -8 25.5 -19t21.5 -16
q0 -3 -8.5 -12t-8.5 -12q0 -1 27 -51.5t31 -57.5l19 -38t26 -48q7 -10 18 -10q5 0 14.5 3t14.5 3q15 0 15 -16zM356 74q0 20 -15 48l-145 268q-28 54 -45 79q-13 20 -35 19q8 -12 54 -97t46 -88q0 -5 -5 -11t-5 -11q0 -1 6 -4t13 -6t9 -5q7 -9 33 -60.5t50.5 -96t31.5 -44.5
t7 9z" />
    <glyph glyph-name="y" unicode="y" horiz-adv-x="500" 
d="M498 521q0 -20 -4 -22t-17 -2q-5 0 -10 -5q-5 -7 -7 -16q-23 -83 -27 -100q-2 -9 -7.5 -28t-7.5 -29v-4q0 -8 16 -20.5t16 -16.5q0 -9 -24 -18t-26 -17l-53 -201q-63 -241 -213 -241q-48 0 -83.5 22.5t-35.5 67.5q0 6 2.5 17.5t2.5 17.5q0 8 -7.5 11t-7.5 6
q0 10 12.5 18.5t23.5 8.5l12 -3q25 25 43 25q6 0 15 -3.5t9 -8.5q0 -3 -7.5 -9.5t-8.5 -9.5l1 -2q26 0 26 -21q0 -28 -14 -28q-3 0 -7 2.5t-7 2.5q-16 0 -16 -27q0 -9 14 -16t28 -7q35 0 55.5 26t8.5 80q-3 14 -21 70.5t-39 121t-26 80.5q-4 4 -15.5 7t-19 8t-7.5 14
q0 12 11.5 19.5t11.5 14.5q0 6 -9 43.5t-20 81.5t-13 51q-3 12 -10.5 12.5t-15 -3.5t-13 -0.5t-5.5 21.5q0 22 17.5 35.5t40.5 13.5q21 0 39 -12q9 12 26 12q14 0 35 -17q28 17 49 17q23 0 37 -15t14 -38q0 -7 -3.5 -10t-7.5 -3t-11.5 1t-10.5 1q-16 0 -16 -7q0 -9 13.5 -83
t16.5 -84q3 -9 21 -15t18 -16q0 -13 -22 -38l30 -150q14 54 58 250q27 130 27 142q0 8 -23 7t-23 11q0 20 13.5 33.5t33.5 13.5q8 0 17 -11q9 11 25 11t21 -12q12 12 21 12q17 0 28.5 -11.5t11.5 -28.5zM249 -32q0 20 -55 196l-73 246q-10 37 -38 59q3 -11 15 -54.5t22 -81
t10 -43.5q0 -5 -14 -12q5 -7 12.5 -11t12.5 -13q7 -12 11.5 -27t9 -34t7.5 -29q4 -12 25.5 -90t36.5 -118q2 -7 8 -7q10 0 10 19z" />
    <glyph glyph-name="z" unicode="z" horiz-adv-x="498" 
d="M469 158q0 -27 -12 -48q7 -7 7 -20t-10 -35q11 -7 11 -24q0 -19 -12 -40.5t-29 -21.5q-11 0 -14.5 15t-7.5 15l-2 -1q-3 -1 -4 -1q-59 -18 -113 -18q-51 0 -96 21q-21 -12 -39 -12q-14 0 -28 9q-19 -14 -41 -14q-16 0 -33.5 9t-17.5 23q0 9 3.5 13t12.5 7.5t12 4.5
q5 2 55.5 100.5t50.5 107.5q0 8 -10.5 18t-10.5 17q0 8 16 13q32 13 48 41q6 10 22.5 38t27 48.5t16.5 40.5q-29 11 -50 11q-42 0 -75.5 -26.5t-33.5 -67.5q0 -29 8 -48q8 -6 8 -13q0 -8 -8.5 -13.5t-16.5 -5.5q-25 0 -40.5 20t-15.5 46q0 19 9 32q-12 15 -12 33q0 15 11 35
q-9 11 -9 27t11.5 39.5t25.5 23.5q8 0 15 -10t14 -10q6 0 17 3.5t14 4.5q41 9 70 9q23 0 63 -9.5t48 -9.5q5 0 18.5 7t23.5 7q21 0 36 -15q14 8 24 8q16 0 28.5 -11.5t12.5 -26.5q-5 -6 -16.5 -13.5t-16.5 -12.5q-9 -9 -46.5 -81.5t-43.5 -88.5q1 -10 7.5 -20.5t6.5 -12.5
q0 -12 -16 -16q-11 -3 -19.5 -9t-16 -17.5t-11.5 -18.5t-10.5 -22.5t-8.5 -19.5l-49 -104q37 -14 52 -14q48 0 84.5 34t36.5 82q0 6 -3 16t-3 15q0 10 7 16t17 6q21 0 36 -21.5t15 -43.5zM320 451q0 2 -0.5 6.5t-0.5 6.5q-17 -14 -35.5 -57.5t-39 -79.5t-46.5 -41
q0 -1 3.5 -6.5t6.5 -10.5l3 -5q0 -11 -48.5 -98.5t-52.5 -108.5l4 -4q10 5 36 45q12 18 27.5 50t20.5 42l106 206q16 32 16 55z" />
    <glyph glyph-name="quoteright" unicode="&#x2019;" horiz-adv-x="302" 
d="M244 691q0 -3 -10.5 -12.5t-11.5 -12.5l-20 -51q-32 -71 -114 -130q-9 -7 -17 -7q-12 0 -12 10q0 4 4 8q5 5 19.5 20.5t19.5 21.5t14.5 19t14.5 25t9 27q-27 4 -46 34q-2 3 -5 9t-5 9q-2 2 -9.5 5.5t-8.5 8.5q9 9 12 16q19 63 72 63q44 0 64 -33q1 -2 3 -6.5t3 -6.5
q2 -3 13 -8.5t11 -8.5zM127 655q0 8 -2.5 24t-2.5 22q0 8 -3 8q-2 -1 -4 -5q-4 -13 -9 -19l-1 -1q-2 -1 -2 -2q1 -2 8.5 -12.5t9.5 -13.5l1 -2l3 -3q2 0 2 4z" />
    <glyph glyph-name="quotesinglbase" unicode="&#x201a;" horiz-adv-x="302" 
d="M244 61q0 -3 -10.5 -12.5t-11.5 -12.5l-20 -51q-32 -71 -114 -130q-9 -7 -17 -7q-12 0 -12 10q0 4 4 8q5 5 19.5 20.5t19.5 21.5t14.5 19t14.5 25t9 27q-27 4 -46 34q-2 3 -5 9t-5 9q-2 2 -9.5 5.5t-8.5 8.5q9 9 12 16q19 63 72 63q44 0 64 -33q1 -2 3 -6.5t3 -6.5
q2 -3 13 -8.5t11 -8.5zM127 25q0 8 -2.5 24t-2.5 22q0 8 -3 8q-2 -1 -4 -5q-4 -13 -9 -19l-1 -1q-2 -1 -2 -2q1 -2 8.5 -12.5t9.5 -13.5l1 -2q2 -3 3 -3q2 0 2 4z" />
    <glyph glyph-name="quotedblleft" unicode="&#x201c;" horiz-adv-x="529" 
d="M480 744q0 -4 -4 -8q-5 -5 -19.5 -20.5t-19.5 -21.5t-14.5 -19t-14.5 -25t-9 -27q27 -4 46 -34q2 -3 5 -9t5 -9q2 -2 9.5 -5.5t8.5 -8.5q-9 -9 -12 -16q-19 -63 -72 -63q-45 0 -64 33q-1 2 -3 6.5t-3 6.5q-2 3 -13 8.5t-11 8.5t10.5 12.5t11.5 12.5l20 51q32 71 114 130
q9 7 17 7q12 0 12 -10zM243 744q0 -4 -4 -8q-5 -5 -19.5 -20.5t-19.5 -21.5t-14.5 -19t-14.5 -25t-9 -27q27 -4 46 -34q2 -3 5 -9t5 -9q2 -2 9.5 -5.5t8.5 -8.5q-9 -9 -12 -16q-19 -63 -72 -63q-44 0 -64 33q-1 2 -3 6.5t-3 6.5q-2 3 -13 8.5t-11 8.5t10.5 12.5t11.5 12.5
l20 51q32 71 114 130q9 7 17 7q12 0 12 -10zM436 550q-1 2 -8.5 12.5t-9.5 13.5l-1 2l-3 3q-2 0 -2 -4q0 -8 2.5 -24t2.5 -22q0 -8 3 -8q2 1 4 5q4 13 9 19l1 1q2 1 2 2zM199 550q-1 2 -8.5 12.5t-9.5 13.5l-1 2l-3 3q-2 0 -2 -4q0 -8 2.5 -24t2.5 -22q0 -8 3 -8q2 1 4 5
q4 13 9 19l1 1q2 1 2 2z" />
    <glyph glyph-name="ff" unicode="&#xfb00;" horiz-adv-x="681" 
d="M674 616q0 -8 -9 -14.5t-18 -6.5q-7 0 -11 3q-15 -22 -33 -22q-21 0 -25 8q10 8 10 21q-30 0 -30 34q0 10 8 10q2 0 7 -2t7 -2q15 0 15 17q0 18 -33 18q-20 0 -34.5 -16t-14.5 -36v-86h118v-50h-118v-167q0 -11 21 -23.5t21 -19.5q0 -9 -21 -16.5t-21 -16.5v-175
q0 -5 3 -8t8.5 -3.5t10.5 -0.5t11.5 0.5t8.5 0.5q7 0 12 -5t5 -12q0 -21 -14.5 -39t-35.5 -18q-5 0 -11 3t-13.5 8l-10.5 7q-19 -17 -32 -17q-16 0 -28 12q-17 -12 -37 -12q-27 0 -46 15t-19 41q0 17 13 17q4 0 11 -2.5t11 -2.5q6 0 6 10v174q0 11 -21 18t-21 17
q0 8 21 19.5t21 23.5v172h-153v-167q0 -11 21 -23.5t21 -19.5q0 -9 -21 -16.5t-21 -16.5v-175q0 -5 3 -8t8.5 -3.5t10.5 -0.5t11.5 0.5t8.5 0.5q7 0 12 -5t5 -12q0 -21 -14.5 -39t-35.5 -18q-5 0 -11 3t-13.5 8l-10.5 7q-19 -17 -32 -17q-16 0 -28 12q-17 -12 -37 -12
q-27 0 -46 15t-19 41q0 17 13 17q4 0 11 -2.5t11 -2.5q6 0 6 10v174q0 11 -21 18t-21 17q0 8 21 19.5t21 23.5v172h-46v50h46v25q0 20 -37 31q25 14 42 33t26 34.5t23.5 29.5t44.5 22t79 8q44 0 75.5 -24t35.5 -66q17 14 33 37.5t26.5 37t43 24.5t86.5 11q47 0 79.5 -27.5
t32.5 -74.5q0 -13 9 -17.5t9 -9.5zM366 542v40q-10 -7 -19 -7q-7 0 -11 3q-15 -22 -33 -22q-21 0 -25 8q10 8 10 21q-30 0 -30 34q0 10 8 10q2 0 7 -2t7 -2q15 0 15 17q0 18 -33 18q-20 0 -34.5 -16t-14.5 -36v-66h153zM445 657l-4 8q-44 -27 -44 -120q0 -46 2 -123t2 -123
q0 -4 -2 -7.5t-3.5 -4.5t-7 -3.5t-6.5 -3.5q2 -7 9.5 -12t9.5 -12q3 -8 3 -45q0 -23 -1.5 -69t-1.5 -69q0 -6 2 -16q21 9 21 104q0 60 -2 164.5t-2 164.5t1 90q1 15 12.5 45.5t11.5 31.5zM145 637l-4 8q-27 -16 -35.5 -40t-8.5 -60q0 -46 2 -123t2 -123q0 -4 -2 -7.5
t-3.5 -4.5t-7 -3.5t-6.5 -3.5q2 -7 9.5 -12t9.5 -12q3 -8 3 -45q0 -23 -1.5 -69t-1.5 -69q0 -6 2 -16q21 9 21 104q0 60 -2 164.5t-2 164.5v83q1 15 13 39t12 25z" />
    <glyph glyph-name="ffi" unicode="&#xfb03;" horiz-adv-x="871" 
d="M872 46q0 -21 -15 -39t-36 -18q-5 0 -11 3t-13.5 8l-10.5 7q-19 -17 -31 -17q-17 0 -29 12q-16 -12 -37 -12q-28 0 -46.5 14.5t-18.5 41.5q0 17 14 17q4 0 11 -2.5t10 -2.5q7 0 7 10v174q0 10 -21.5 18t-21.5 17q0 6 21.5 19t21.5 24v157q0 6 -6 10.5t-12 4.5
q-93 1 -135 0v-167q0 -11 21 -23.5t21 -19.5q0 -9 -21 -16.5t-21 -16.5v-175q0 -12 20 -12q3 0 11 0.5t11 0.5q7 0 12 -5t5 -12q0 -21 -14.5 -39t-35.5 -18q-5 0 -11 3t-14 8.5t-10 6.5q-19 -17 -32 -17q-16 0 -28 12q-17 -12 -37 -12q-27 0 -46 15t-19 41q0 17 13 17
q4 0 11 -2.5t11 -2.5q6 0 6 10v174q0 11 -21 18t-21 17q0 8 21 19.5t21 23.5v172h-153v-167q0 -11 21 -23.5t21 -19.5q0 -9 -21 -16.5t-21 -16.5v-175q0 -5 3 -8t8.5 -3.5t10.5 -0.5t11.5 0.5t8.5 0.5q7 0 12 -5t5 -12q0 -21 -14.5 -39t-35.5 -18q-5 0 -11 3t-13.5 8
l-10.5 7q-19 -17 -32 -17q-16 0 -28 12q-17 -12 -37 -12q-27 0 -46 15t-19 41q0 17 13 17q4 0 11 -2.5t11 -2.5q6 0 6 10v174q0 11 -21 18t-21 17q0 8 21 19.5t21 23.5v172h-46v50h46v25q0 20 -37 31q25 14 42 33t26 34.5t23.5 29.5t44.5 22t79 8q44 0 75 -25t35 -67
q21 12 35 26q92 89 192 89q52 0 99 -28t47 -77q0 -13 9 -17.5t9 -9.5q0 -8 -9 -14.5t-18 -6.5q-6 0 -11 3q-15 -22 -33 -22q-19 0 -25 8q10 8 10 21q-30 0 -30 34q0 10 8 10q3 0 7 -2t7 -2q15 0 15 10q0 17 -23 26t-42 9q-35 0 -61.5 -15t-26.5 -47v-86h132q18 14 44 14
q11 0 33 -10q1 1 3 3.5t2.5 3l2.5 2.5t3 2.5t2.5 1.5t3 1.5l3 1t4 0.5h4.5h31q31 0 31 -20v-217q0 -10 21.5 -23.5t21.5 -19.5q0 -8 -21.5 -16.5t-21.5 -16.5v-175q0 -12 22 -12q4 0 11 0.5t10 0.5q7 0 12 -5t5 -12zM723 136v275q0 36 -20 55q-4 -10 -4.5 -42t0.5 -78t1 -49
q0 -4 -2 -7t-3.5 -4.5t-6 -3.5t-6.5 -3q2 -7 5.5 -9.5t6.5 -3.5t5 -11t2 -31q0 -25 -0.5 -75.5t-0.5 -75.5q0 -1 3 -16q10 4 15 32t5 47zM366 542v36q0 20 -11 29q-7 -26 -22 -38.5t-30 -12.5q-21 0 -25 8q10 8 10 21q-30 0 -30 34q0 10 8 10q2 0 7 -2t7 -2q15 0 15 17
q0 18 -33 18q-20 0 -34.5 -16t-14.5 -36v-66h153zM445 657l-4 8q-44 -27 -44 -120q0 -41 2 -123t2 -123q0 -11 -19 -19q2 -7 9 -12t10 -12q3 -8 3 -45q0 -23 -1.5 -69t-1.5 -69q0 -6 2 -16q21 10 21 104q0 57 -2 171t-2 171q0 64 1 77q1 14 12.5 44.5t11.5 32.5zM145 637
l-4 8q-27 -16 -35.5 -40t-8.5 -60q0 -46 2 -123t2 -123q0 -4 -2 -7.5t-3.5 -4.5t-7 -3.5t-6.5 -3.5q2 -7 9.5 -12t9.5 -12q3 -8 3 -45q0 -23 -1.5 -69t-1.5 -69q0 -6 2 -16q21 9 21 104q0 60 -2 164.5t-2 164.5v83q1 15 13 39t12 25z" />
    <glyph glyph-name="ffl" unicode="&#xfb04;" horiz-adv-x="871" 
d="M872 46q0 -21 -14.5 -39t-35.5 -18q-5 0 -11 3t-13.5 8l-10.5 7q-19 -17 -32 -17q-16 0 -28 12q-17 -12 -37 -12q-28 0 -46.5 14.5t-18.5 41.5q0 17 13 17q4 0 11 -2.5t11 -2.5q6 0 6 10v174q0 11 -21 18.5t-21 16.5q0 7 21 19.5t21 23.5v172h-153v-167q0 -11 21 -23.5
t21 -19.5q0 -9 -21 -16.5t-21 -16.5v-175q0 -12 20 -12q3 0 11 0.5t11 0.5q7 0 12 -5t5 -12q0 -21 -14.5 -39t-35.5 -18q-5 0 -11 3t-14 8.5t-10 6.5q-19 -17 -32 -17q-16 0 -28 12q-17 -12 -37 -12q-27 0 -46 15t-19 41q0 17 13 17q4 0 11 -2.5t11 -2.5q6 0 6 10v174
q0 11 -21 18t-21 17q0 8 21 19.5t21 23.5v172h-153v-167q0 -11 21 -23.5t21 -19.5q0 -9 -21 -16.5t-21 -16.5v-175q0 -5 3 -8t8.5 -3.5t10.5 -0.5t11.5 0.5t8.5 0.5q7 0 12 -5t5 -12q0 -21 -14.5 -39t-35.5 -18q-5 0 -11 3t-13.5 8l-10.5 7q-19 -17 -32 -17q-16 0 -28 12
q-17 -12 -37 -12q-27 0 -46 15t-19 41q0 17 13 17q4 0 11 -2.5t11 -2.5q6 0 6 10v174q0 11 -21 18t-21 17q0 8 21 19.5t21 23.5v172h-46v50h46v25q0 20 -37 31q25 14 42 33t26 34.5t23.5 29.5t44.5 22t79 8q44 0 75.5 -24t35.5 -66q20 10 34 24q92 89 192 89q48 0 89 -22
q23 0 41 -7q5 6 11.5 9.5t15.5 5t13 2t16.5 0t14.5 -0.5q31 0 31 -20v-390q0 -10 21 -23.5t21 -19.5q0 -8 -21 -16.5t-21 -16.5v-175q0 -5 3 -7.5t9 -3.5t11 -1t11 0.5t8 0.5q7 0 12 -5t5 -12zM666 542v35q-14 2 -17 7q10 8 10 21q-30 0 -30 34q0 10 8 10q3 0 7 -2t7 -2
q15 0 15 10q0 17 -23 26t-42 9q-35 0 -61.5 -15t-26.5 -47v-86h153zM717 144v444q0 36 -21 57q-5 -15 -5 -69q0 -45 1.5 -135.5t1.5 -135.5q0 -11 -19 -19q2 -7 9.5 -12t9.5 -12q3 -9 3 -45q0 -23 -1.5 -69t-1.5 -69q0 -6 2 -16q10 5 15.5 33t5.5 48zM366 542v40
q-10 -7 -19 -7q-7 0 -11 3q-15 -22 -33 -22q-21 0 -25 8q10 8 10 21q-30 0 -30 34q0 10 8 10q2 0 7 -2t7 -2q15 0 15 17q0 18 -33 18q-20 0 -34.5 -16t-14.5 -36v-66h153zM445 657l-4 8q-44 -27 -44 -120q0 -41 2 -123t2 -123q0 -11 -19 -19q2 -7 9 -12t10 -12q3 -8 3 -45
q0 -23 -1.5 -69t-1.5 -69q0 -6 2 -16q21 10 21 104q0 57 -2 171t-2 171q0 64 1 77q1 14 12.5 44.5t11.5 32.5zM145 637l-4 8q-27 -16 -35.5 -40t-8.5 -60q0 -46 2 -123t2 -123q0 -4 -2 -7.5t-3.5 -4.5t-7 -3.5t-6.5 -3.5q2 -7 9.5 -12t9.5 -12q3 -8 3 -45q0 -23 -1.5 -69
t-1.5 -69q0 -6 2 -16q21 9 21 104q0 60 -2 164.5t-2 164.5v83q1 15 13 39t12 25z" />
    <glyph glyph-name="exclam" 
 />
    <glyph glyph-name="quotedbl" 
 />
    <glyph glyph-name="numbersign" 
 />
    <glyph glyph-name="dollar" 
 />
    <glyph glyph-name="percent" 
 />
    <glyph glyph-name="ampersand" 
 />
    <glyph glyph-name="slash" 
 />
    <glyph glyph-name="two" 
 />
    <glyph glyph-name="seven" 
 />
    <glyph glyph-name="nine" 
 />
    <glyph glyph-name="colon" 
 />
    <glyph glyph-name="semicolon" 
 />
    <glyph glyph-name="less" 
 />
    <glyph glyph-name="equal" 
 />
    <glyph glyph-name="greater" 
 />
    <glyph glyph-name="question" 
 />
    <glyph glyph-name="at" 
 />
    <glyph glyph-name="B" 
 />
    <glyph glyph-name="D" 
 />
    <glyph glyph-name="E" 
 />
    <glyph glyph-name="F" 
 />
    <glyph glyph-name="G" 
 />
    <glyph glyph-name="H" 
 />
    <glyph glyph-name="J" 
 />
    <glyph glyph-name="K" 
 />
    <glyph glyph-name="L" 
 />
    <glyph glyph-name="M" 
 />
    <glyph glyph-name="N" 
 />
    <glyph glyph-name="O" 
 />
    <glyph glyph-name="Q" 
 />
    <glyph glyph-name="R" 
 />
    <glyph glyph-name="S" 
 />
    <glyph glyph-name="V" 
 />
    <glyph glyph-name="X" 
 />
    <glyph glyph-name="Y" 
 />
    <glyph glyph-name="Z" 
 />
    <glyph glyph-name="braceleft" 
 />
    <glyph glyph-name="bar" 
 />
    <glyph glyph-name="braceright" 
 />
    <glyph glyph-name="asciitilde" 
 />
    <glyph glyph-name="nbspace" 
 />
    <glyph glyph-name="exclamdown" 
 />
    <glyph glyph-name="cent" 
 />
    <glyph glyph-name="sterling" 
 />
    <glyph glyph-name="currency" 
 />
    <glyph glyph-name="yen" 
 />
    <glyph glyph-name="brokenbar" 
 />
    <glyph glyph-name="section" 
 />
    <glyph glyph-name="dieresis" 
 />
    <glyph glyph-name="copyright" 
 />
    <glyph glyph-name="ordfeminine" 
 />
    <glyph glyph-name="guillemotleft" 
 />
    <glyph glyph-name="logicalnot" 
 />
    <glyph glyph-name="registered" 
 />
    <glyph glyph-name="macron" 
 />
    <glyph glyph-name="degree" 
 />
    <glyph glyph-name="plusminus" 
 />
    <glyph glyph-name="twosuperior" 
 />
    <glyph glyph-name="threesuperior" 
 />
    <glyph glyph-name="acute" 
 />
    <glyph glyph-name="mu" 
 />
    <glyph glyph-name="paragraph" 
 />
    <glyph glyph-name="periodcentered" 
 />
    <glyph glyph-name="cedilla" 
 />
    <glyph glyph-name="onesuperior" 
 />
    <glyph glyph-name="ordmasculine" 
 />
    <glyph glyph-name="guillemotright" 
 />
    <glyph glyph-name="onequarter" 
 />
    <glyph glyph-name="onehalf" 
 />
    <glyph glyph-name="threequarters" 
 />
    <glyph glyph-name="questiondown" 
 />
    <glyph glyph-name="Agrave" 
 />
    <glyph glyph-name="Aacute" 
 />
    <glyph glyph-name="Acircumflex" 
 />
    <glyph glyph-name="Atilde" 
 />
    <glyph glyph-name="Adieresis" 
 />
    <glyph glyph-name="Aring" 
 />
    <glyph glyph-name="AE" 
 />
    <glyph glyph-name="Ccedilla" 
 />
    <glyph glyph-name="Egrave" 
 />
    <glyph glyph-name="Eacute" 
 />
    <glyph glyph-name="Ecircumflex" 
 />
    <glyph glyph-name="Edieresis" 
 />
    <glyph glyph-name="Igrave" 
 />
    <glyph glyph-name="Iacute" 
 />
    <glyph glyph-name="Icircumflex" 
 />
    <glyph glyph-name="Idieresis" 
 />
    <glyph glyph-name="Eth" 
 />
    <glyph glyph-name="Ntilde" 
 />
    <glyph glyph-name="Ograve" 
 />
    <glyph glyph-name="Oacute" 
 />
    <glyph glyph-name="Ocircumflex" 
 />
    <glyph glyph-name="Otilde" 
 />
    <glyph glyph-name="Odieresis" 
 />
    <glyph glyph-name="multiply" 
 />
    <glyph glyph-name="Oslash" 
 />
    <glyph glyph-name="Ugrave" 
 />
    <glyph glyph-name="Uacute" 
 />
    <glyph glyph-name="Ucircumflex" 
 />
    <glyph glyph-name="Udieresis" 
 />
    <glyph glyph-name="Yacute" 
 />
    <glyph glyph-name="Thorn" 
 />
    <glyph glyph-name="germandbls" 
 />
    <glyph glyph-name="agrave" 
 />
    <glyph glyph-name="aacute" 
 />
    <glyph glyph-name="acircumflex" 
 />
    <glyph glyph-name="atilde" 
 />
    <glyph glyph-name="adieresis" 
 />
    <glyph glyph-name="aring" 
 />
    <glyph glyph-name="ae" 
 />
    <glyph glyph-name="ccedilla" 
 />
    <glyph glyph-name="egrave" 
 />
    <glyph glyph-name="eacute" 
 />
    <glyph glyph-name="ecircumflex" 
 />
    <glyph glyph-name="edieresis" 
 />
    <glyph glyph-name="igrave" 
 />
    <glyph glyph-name="iacute" 
 />
    <glyph glyph-name="icircumflex" 
 />
    <glyph glyph-name="idieresis" 
 />
    <glyph glyph-name="eth" 
 />
    <glyph glyph-name="ntilde" 
 />
    <glyph glyph-name="ograve" 
 />
    <glyph glyph-name="oacute" 
 />
    <glyph glyph-name="ocircumflex" 
 />
    <glyph glyph-name="otilde" 
 />
    <glyph glyph-name="odieresis" 
 />
    <glyph glyph-name="divide" 
 />
    <glyph glyph-name="oslash" 
 />
    <glyph glyph-name="ugrave" 
 />
    <glyph glyph-name="uacute" 
 />
    <glyph glyph-name="ucircumflex" 
 />
    <glyph glyph-name="udieresis" 
 />
    <glyph glyph-name="yacute" 
 />
    <glyph glyph-name="thorn" 
 />
    <glyph glyph-name="ydieresis" 
 />
    <glyph glyph-name="dotlessi" 
 />
    <glyph glyph-name="Lslash" 
 />
    <glyph glyph-name="lslash" 
 />
    <glyph glyph-name="OE" 
 />
    <glyph glyph-name="oe" 
 />
    <glyph glyph-name="Scaron" 
 />
    <glyph glyph-name="scaron" 
 />
    <glyph glyph-name="Ydieresis" 
 />
    <glyph glyph-name="Zcaron" 
 />
    <glyph glyph-name="zcaron" 
 />
    <glyph glyph-name="florin" 
 />
    <glyph glyph-name="circumflex" 
 />
    <glyph glyph-name="caron" 
 />
    <glyph glyph-name="breve" 
 />
    <glyph glyph-name="dotaccent" 
 />
    <glyph glyph-name="ring" 
 />
    <glyph glyph-name="ogonek" 
 />
    <glyph glyph-name="tilde" 
 />
    <glyph glyph-name="hungarumlaut" 
 />
    <glyph glyph-name="Delta" 
 />
    <glyph glyph-name="Omega" 
 />
    <glyph glyph-name="pi" 
 />
    <glyph glyph-name="endash" 
 />
    <glyph glyph-name="emdash" 
 />
    <glyph glyph-name="quoteleft" 
 />
    <glyph glyph-name="quotedblright" 
 />
    <glyph glyph-name="quotedblbase" 
 />
    <glyph glyph-name="dagger" 
 />
    <glyph glyph-name="daggerdbl" 
 />
    <glyph glyph-name="bullet" 
 />
    <glyph glyph-name="ellipsis" 
 />
    <glyph glyph-name="perthousand" 
 />
    <glyph glyph-name="guilsinglleft" 
 />
    <glyph glyph-name="guilsinglright" 
 />
    <glyph glyph-name="fraction" 
 />
    <glyph glyph-name="Euro" 
 />
    <glyph glyph-name="liter" 
 />
    <glyph glyph-name="trademark" 
 />
    <glyph glyph-name="estimated" 
 />
    <glyph glyph-name="partialdiff" 
 />
    <glyph glyph-name="product" 
 />
    <glyph glyph-name="summation" 
 />
    <glyph glyph-name="minus" 
 />
    <glyph glyph-name="radical" 
 />
    <glyph glyph-name="infinity" 
 />
    <glyph glyph-name="integral" 
 />
    <glyph glyph-name="approxequal" 
 />
    <glyph glyph-name="notequal" 
 />
    <glyph glyph-name="lessequal" 
 />
    <glyph glyph-name="greaterequal" 
 />
    <glyph glyph-name="lozenge" 
 />
    <glyph glyph-name="zero.tabular" 
 />
    <glyph glyph-name="one.tabular" 
 />
    <glyph glyph-name="two.tabular" 
 />
    <glyph glyph-name="three.tabular" 
 />
    <glyph glyph-name="four.tabular" 
 />
    <glyph glyph-name="five.tabular" 
 />
    <glyph glyph-name="six.tabular" 
 />
    <glyph glyph-name="seven.tabular" 
 />
    <glyph glyph-name="eight.tabular" 
 />
    <glyph glyph-name="nine.tabular" 
 />
    <glyph glyph-name="numbersign.tabular" 
 />
    <glyph glyph-name="dollar.tabular" 
 />
    <glyph glyph-name="percent.tabular" 
 />
    <glyph glyph-name="cent.tabular" 
 />
    <glyph glyph-name="sterling.tabular" 
 />
    <glyph glyph-name="yen.tabular" 
 />
    <glyph glyph-name="Euro.tabular" 
 />
    <glyph glyph-name="zero.oldstyle" 
 />
    <glyph glyph-name="one.oldstyle" 
 />
    <glyph glyph-name="two.oldstyle" 
 />
    <glyph glyph-name="three.oldstyle" 
 />
    <glyph glyph-name="four.oldstyle" 
 />
    <glyph glyph-name="five.oldstyle" 
 />
    <glyph glyph-name="six.oldstyle" 
 />
    <glyph glyph-name="seven.oldstyle" 
 />
    <glyph glyph-name="eight.oldstyle" 
 />
    <glyph glyph-name="nine.oldstyle" 
 />
    <glyph glyph-name="numbersign.oldstyle" 
 />
    <glyph glyph-name="dollar.oldstyle" 
 />
    <glyph glyph-name="percent.oldstyle" 
 />
    <glyph glyph-name="cent.oldstyle" 
 />
    <glyph glyph-name="sterling.oldstyle" 
 />
    <glyph glyph-name="yen.oldstyle" 
 />
    <glyph glyph-name="Euro.oldstyle" 
 />
    <glyph glyph-name="zero.pnum" 
 />
    <glyph glyph-name="one.pnum" 
 />
    <glyph glyph-name="two.pnum" 
 />
    <glyph glyph-name="three.pnum" 
 />
    <glyph glyph-name="four.pnum" 
 />
    <glyph glyph-name="five.pnum" 
 />
    <glyph glyph-name="six.pnum" 
 />
    <glyph glyph-name="seven.pnum" 
 />
    <glyph glyph-name="eight.pnum" 
 />
    <glyph glyph-name="nine.pnum" 
 />
    <glyph glyph-name="dollar.pnum" 
 />
    <glyph glyph-name="cent.pnum" 
 />
    <glyph glyph-name="sterling.pnum" 
 />
    <glyph glyph-name="yen.pnum" 
 />
    <glyph glyph-name="Euro.pnum" 
 />
    <glyph glyph-name="zero.taboldstyle" 
 />
    <glyph glyph-name="one.taboldstyle" 
 />
    <glyph glyph-name="two.taboldstyle" 
 />
    <glyph glyph-name="three.taboldstyle" 
 />
    <glyph glyph-name="four.taboldstyle" 
 />
    <glyph glyph-name="five.taboldstyle" 
 />
    <glyph glyph-name="six.taboldstyle" 
 />
    <glyph glyph-name="seven.taboldstyle" 
 />
    <glyph glyph-name="eight.taboldstyle" 
 />
    <glyph glyph-name="nine.taboldstyle" 
 />
    <glyph glyph-name="dollar.taboldstyle" 
 />
    <glyph glyph-name="cent.taboldstyle" 
 />
    <glyph glyph-name="sterling.taboldstyle" 
 />
    <glyph glyph-name="yen.taboldstyle" 
 />
    <glyph glyph-name="Euro.taboldstyle" 
 />
    <glyph glyph-name="zero.tabpetitestyle" 
 />
    <glyph glyph-name="one.tabpetitestyle" 
 />
    <glyph glyph-name="two.tabpetitestyle" 
 />
    <glyph glyph-name="three.tabpetitestyle" 
 />
    <glyph glyph-name="four.tabpetitestyle" 
 />
    <glyph glyph-name="five.tabpetitestyle" 
 />
    <glyph glyph-name="six.tabpetitestyle" 
 />
    <glyph glyph-name="seven.tabpetitestyle" 
 />
    <glyph glyph-name="eight.tabpetitestyle" 
 />
    <glyph glyph-name="nine.tabpetitestyle" 
 />
    <glyph glyph-name="dollar.tabpetitestyle" 
 />
    <glyph glyph-name="cent.tabpetitestyle" 
 />
    <glyph glyph-name="sterling.tabpetitestyle" 
 />
    <glyph glyph-name="yen.tabpetitestyle" 
 />
    <glyph glyph-name="Euro.tabpetitestyle" 
 />
    <glyph glyph-name="zero.fittedoldstyle" 
 />
    <glyph glyph-name="one.fittedoldstyle" 
 />
    <glyph glyph-name="two.fittedoldstyle" 
 />
    <glyph glyph-name="three.fittedoldstyle" 
 />
    <glyph glyph-name="four.fittedoldstyle" 
 />
    <glyph glyph-name="five.fittedoldstyle" 
 />
    <glyph glyph-name="six.fittedoldstyle" 
 />
    <glyph glyph-name="seven.fittedoldstyle" 
 />
    <glyph glyph-name="eight.fittedoldstyle" 
 />
    <glyph glyph-name="nine.fittedoldstyle" 
 />
    <glyph glyph-name="dollar.fittedoldstyle" 
 />
    <glyph glyph-name="cent.fittedoldstyle" 
 />
    <glyph glyph-name="sterling.fittedoldstyle" 
 />
    <glyph glyph-name="yen.fittedoldstyle" 
 />
    <glyph glyph-name="Euro.fittedoldstyle" 
 />
    <glyph glyph-name="zero.fittedpetitestyle" 
 />
    <glyph glyph-name="one.fittedpetitestyle" 
 />
    <glyph glyph-name="two.fittedpetitestyle" 
 />
    <glyph glyph-name="three.fittedpetitestyle" 
 />
    <glyph glyph-name="four.fittedpetitestyle" 
 />
    <glyph glyph-name="five.fittedpetitestyle" 
 />
    <glyph glyph-name="six.fittedpetitestyle" 
 />
    <glyph glyph-name="seven.fittedpetitestyle" 
 />
    <glyph glyph-name="eight.fittedpetitestyle" 
 />
    <glyph glyph-name="nine.fittedpetitestyle" 
 />
    <glyph glyph-name="dollar.fittedpetitestyle" 
 />
    <glyph glyph-name="cent.fittedpetitestyle" 
 />
    <glyph glyph-name="sterling.fittedpetitestyle" 
 />
    <glyph glyph-name="yen.fittedpetitestyle" 
 />
    <glyph glyph-name="Euro.fittedpetitestyle" 
 />
    <glyph glyph-name="minus.cap" 
 />
    <glyph glyph-name="multiply.cap" 
 />
    <glyph glyph-name="parenleft.cap" 
 />
    <glyph glyph-name="parenright.cap" 
 />
    <glyph glyph-name="plus.cap" 
 />
    <glyph glyph-name="hyphen.cap" 
 />
    <glyph glyph-name="less.cap" 
 />
    <glyph glyph-name="equal.cap" 
 />
    <glyph glyph-name="greater.cap" 
 />
    <glyph glyph-name="bracketleft.cap" 
 />
    <glyph glyph-name="bracketright.cap" 
 />
    <glyph glyph-name="braceleft.cap" 
 />
    <glyph glyph-name="braceright.cap" 
 />
    <glyph glyph-name="asciitilde.cap" 
 />
    <glyph glyph-name="bullet.cap" 
 />
    <glyph glyph-name="notequal.cap" 
 />
    <glyph glyph-name="infinity.cap" 
 />
    <glyph glyph-name="questiondown.cap" 
 />
    <glyph glyph-name="exclamdown.cap" 
 />
    <glyph glyph-name="logicalnot.cap" 
 />
    <glyph glyph-name="approxequal.cap" 
 />
    <glyph glyph-name="guillemotleft.cap" 
 />
    <glyph glyph-name="guillemotright.cap" 
 />
    <glyph glyph-name="endash.cap" 
 />
    <glyph glyph-name="emdash.cap" 
 />
    <glyph glyph-name="divide.cap" 
 />
    <glyph glyph-name="guilsinglleft.cap" 
 />
    <glyph glyph-name="guilsinglright.cap" 
 />
    <glyph glyph-name="periodcentered.cap" 
 />
    <glyph glyph-name="eth.smcp" 
 />
    <glyph glyph-name="lslash.smcp" 
 />
    <glyph glyph-name="scaron.smcp" 
 />
    <glyph glyph-name="yacute.smcp" 
 />
    <glyph glyph-name="thorn.smcp" 
 />
    <glyph glyph-name="zcaron.smcp" 
 />
    <glyph glyph-name="onehalf.smcp" 
 />
    <glyph glyph-name="onequarter.smcp" 
 />
    <glyph glyph-name="onesuperior.smcp" 
 />
    <glyph glyph-name="threequarters.smcp" 
 />
    <glyph glyph-name="threesuperior.smcp" 
 />
    <glyph glyph-name="twosuperior.smcp" 
 />
    <glyph glyph-name="exclam.smcp" 
 />
    <glyph glyph-name="numbersign.smcp" 
 />
    <glyph glyph-name="dollar.smcp" 
 />
    <glyph glyph-name="percent.smcp" 
 />
    <glyph glyph-name="ampersand.smcp" 
 />
    <glyph glyph-name="parenleft.smcp" 
 />
    <glyph glyph-name="parenright.smcp" 
 />
    <glyph glyph-name="zero.smcp" 
 />
    <glyph glyph-name="one.smcp" 
 />
    <glyph glyph-name="two.smcp" 
 />
    <glyph glyph-name="three.smcp" 
 />
    <glyph glyph-name="four.smcp" 
 />
    <glyph glyph-name="five.smcp" 
 />
    <glyph glyph-name="six.smcp" 
 />
    <glyph glyph-name="seven.smcp" 
 />
    <glyph glyph-name="eight.smcp" 
 />
    <glyph glyph-name="nine.smcp" 
 />
    <glyph glyph-name="question.smcp" 
 />
    <glyph glyph-name="at.smcp" 
 />
    <glyph glyph-name="bracketleft.smcp" 
 />
    <glyph glyph-name="bracketright.smcp" 
 />
    <glyph glyph-name="a.smcp" 
 />
    <glyph glyph-name="b.smcp" 
 />
    <glyph glyph-name="c.smcp" 
 />
    <glyph glyph-name="d.smcp" 
 />
    <glyph glyph-name="e.smcp" 
 />
    <glyph glyph-name="f.smcp" 
 />
    <glyph glyph-name="g.smcp" 
 />
    <glyph glyph-name="h.smcp" 
 />
    <glyph glyph-name="i.smcp" 
 />
    <glyph glyph-name="j.smcp" 
 />
    <glyph glyph-name="k.smcp" 
 />
    <glyph glyph-name="l.smcp" 
 />
    <glyph glyph-name="m.smcp" 
 />
    <glyph glyph-name="n.smcp" 
 />
    <glyph glyph-name="o.smcp" 
 />
    <glyph glyph-name="p.smcp" 
 />
    <glyph glyph-name="q.smcp" 
 />
    <glyph glyph-name="r.smcp" 
 />
    <glyph glyph-name="s.smcp" 
 />
    <glyph glyph-name="t.smcp" 
 />
    <glyph glyph-name="u.smcp" 
 />
    <glyph glyph-name="v.smcp" 
 />
    <glyph glyph-name="w.smcp" 
 />
    <glyph glyph-name="x.smcp" 
 />
    <glyph glyph-name="y.smcp" 
 />
    <glyph glyph-name="z.smcp" 
 />
    <glyph glyph-name="braceleft.smcp" 
 />
    <glyph glyph-name="braceright.smcp" 
 />
    <glyph glyph-name="aacute.smcp" 
 />
    <glyph glyph-name="agrave.smcp" 
 />
    <glyph glyph-name="acircumflex.smcp" 
 />
    <glyph glyph-name="adieresis.smcp" 
 />
    <glyph glyph-name="atilde.smcp" 
 />
    <glyph glyph-name="aring.smcp" 
 />
    <glyph glyph-name="ccedilla.smcp" 
 />
    <glyph glyph-name="eacute.smcp" 
 />
    <glyph glyph-name="egrave.smcp" 
 />
    <glyph glyph-name="ecircumflex.smcp" 
 />
    <glyph glyph-name="edieresis.smcp" 
 />
    <glyph glyph-name="iacute.smcp" 
 />
    <glyph glyph-name="igrave.smcp" 
 />
    <glyph glyph-name="icircumflex.smcp" 
 />
    <glyph glyph-name="idieresis.smcp" 
 />
    <glyph glyph-name="ntilde.smcp" 
 />
    <glyph glyph-name="oacute.smcp" 
 />
    <glyph glyph-name="ograve.smcp" 
 />
    <glyph glyph-name="ocircumflex.smcp" 
 />
    <glyph glyph-name="odieresis.smcp" 
 />
    <glyph glyph-name="otilde.smcp" 
 />
    <glyph glyph-name="uacute.smcp" 
 />
    <glyph glyph-name="ugrave.smcp" 
 />
    <glyph glyph-name="ucircumflex.smcp" 
 />
    <glyph glyph-name="udieresis.smcp" 
 />
    <glyph glyph-name="cent.smcp" 
 />
    <glyph glyph-name="sterling.smcp" 
 />
    <glyph glyph-name="section.smcp" 
 />
    <glyph glyph-name="bullet.smcp" 
 />
    <glyph glyph-name="paragraph.smcp" 
 />
    <glyph glyph-name="germandbls.smcp" 
 />
    <glyph glyph-name="yen.smcp" 
 />
    <glyph glyph-name="ordfeminine.smcp" 
 />
    <glyph glyph-name="ordmasculine.smcp" 
 />
    <glyph glyph-name="ae.smcp" 
 />
    <glyph glyph-name="oslash.smcp" 
 />
    <glyph glyph-name="questiondown.smcp" 
 />
    <glyph glyph-name="exclamdown.smcp" 
 />
    <glyph glyph-name="florin.smcp" 
 />
    <glyph glyph-name="oe.smcp" 
 />
    <glyph glyph-name="emdash.smcp" 
 />
    <glyph glyph-name="ydieresis.smcp" 
 />
    <glyph glyph-name="fraction.smcp" 
 />
    <glyph glyph-name="Euro.smcp" 
 />
    <glyph glyph-name="fi.smcp" 
 />
    <glyph glyph-name="fl.smcp" 
 />
    <glyph glyph-name="perthousand.smcp" 
 />
    <glyph glyph-name="dotlessi.smcp" 
 />
    <glyph glyph-name="ampersand.salt" 
 />
    <glyph glyph-name="J.salt" 
 />
    <glyph glyph-name="Q.salt" 
 />
    <glyph glyph-name="V.salt" 
 />
    <glyph glyph-name="W.salt" 
 />
    <glyph glyph-name="f.salt" 
 />
    <glyph glyph-name="t.salt" 
 />
    <glyph glyph-name="v.salt" 
 />
    <glyph glyph-name="w.salt" 
 />
    <glyph glyph-name="ampersand.smcp01" 
 />
    <glyph glyph-name="j.smcp01" 
 />
    <glyph glyph-name="q.smcp01" 
 />
    <glyph glyph-name="v.smcp01" 
 />
    <glyph glyph-name="w.smcp01" 
 />
    <glyph glyph-name="Delta.smcp01" 
 />
    <glyph glyph-name="f_f_j" 
 />
    <glyph glyph-name="f_j" 
 />
    <glyph glyph-name="f_i.alt01" 
 />
    <glyph glyph-name="f_l.alt01" 
 />
    <glyph glyph-name="f_b" 
 />
    <glyph glyph-name="f_f_b" 
 />
    <glyph glyph-name="f_h" 
 />
    <glyph glyph-name="f_f_h" 
 />
    <glyph glyph-name="f_k" 
 />
    <glyph glyph-name="f_f_k" 
 />
    <glyph glyph-name="f_r" 
 />
    <glyph glyph-name="f_f_r" 
 />
    <glyph glyph-name="f_t" 
 />
    <glyph glyph-name="f_f_t" 
 />
    <glyph glyph-name="f_x" 
 />
    <glyph glyph-name="f_f_x" 
 />
    <glyph glyph-name="A.init" 
 />
    <glyph glyph-name="B.init" 
 />
    <glyph glyph-name="C.init" 
 />
    <glyph glyph-name="D.init" 
 />
    <glyph glyph-name="E.init" 
 />
    <glyph glyph-name="F.init" 
 />
    <glyph glyph-name="G.init" 
 />
    <glyph glyph-name="H.init" 
 />
    <glyph glyph-name="I.init" 
 />
    <glyph glyph-name="J.init" 
 />
    <glyph glyph-name="K.init" 
 />
    <glyph glyph-name="L.init" 
 />
    <glyph glyph-name="M.init" 
 />
    <glyph glyph-name="N.init" 
 />
    <glyph glyph-name="O.init" 
 />
    <glyph glyph-name="P.init" 
 />
    <glyph glyph-name="Q.init" 
 />
    <glyph glyph-name="R.init" 
 />
    <glyph glyph-name="S.init" 
 />
    <glyph glyph-name="T.init" 
 />
    <glyph glyph-name="U.init" 
 />
    <glyph glyph-name="V.init" 
 />
    <glyph glyph-name="W.init" 
 />
    <glyph glyph-name="X.init" 
 />
    <glyph glyph-name="Y.init" 
 />
    <glyph glyph-name="Z.init" 
 />
    <glyph glyph-name="ampersand.hist" 
 />
    <glyph glyph-name="f.hist" 
 />
    <glyph glyph-name="liter.alt01" 
 />
    <glyph glyph-name="lozenge.alt01" 
 />
    <glyph glyph-name="apple" 
 />
    </font>
</defs>
</svg>
